<svg xmlns="http://www.w3.org/2000/svg" xmlns:xlink="http://www.w3.org/1999/xlink" width="210" height="79" viewBox="0 0 210 79">
  <defs>
    <clipPath id="clip-path">
      <rect id="Rectangle_105" data-name="Rectangle 105" width="4.388" height="4.222"/>
    </clipPath>
  </defs>
  <g id="Groupe_313" data-name="Groupe 313" transform="translate(-750 -4661)">
    <rect id="Rectangle_221" data-name="Rectangle 221" width="210" height="79" transform="translate(750 4661)" fill="none"/>
    <g id="BreizhCola2" transform="translate(814 4671)">
      <g id="Groupe_186" data-name="Groupe 186">
        <g id="Groupe_185" data-name="Groupe 185" transform="translate(51.369 7.172)">
          <g id="Groupe_184" data-name="Groupe 184">
            <rect id="Rectangle_98" data-name="Rectangle 98" width="4.388" height="4.222"/>
            <g id="Groupe_183" data-name="Groupe 183" clip-path="url(#clip-path)">
              <rect id="Rectangle_99" data-name="Rectangle 99" width="4.388" height="4.222"/>
              <g id="Groupe_182" data-name="Groupe 182" clip-path="url(#clip-path)">
                <g id="Groupe_181" data-name="Groupe 181">
                  <rect id="Rectangle_100" data-name="Rectangle 100" width="4.388" height="4.222"/>
                  <g id="Groupe_180" data-name="Groupe 180" clip-path="url(#clip-path)">
                    <rect id="Rectangle_101" data-name="Rectangle 101" width="4.388" height="4.222"/>
                    <g id="Groupe_179" data-name="Groupe 179" clip-path="url(#clip-path)">
                      <path id="Tracé_197" data-name="Tracé 197" d="M127.028,49.181c1.573-.207,2.525-1.7,2.318-4.181a3.308,3.308,0,0,1-1.118.745.525.525,0,0,1-.248.041,3.882,3.882,0,0,1-2.07-.414,13.074,13.074,0,0,1-.911,3.27,2.667,2.667,0,0,0,2.028.538" transform="translate(-125 -44.959)"/>
                    </g>
                  </g>
                </g>
              </g>
            </g>
          </g>
        </g>
        <path id="Tracé_198" data-name="Tracé 198" d="M125.828,46.881c1.573-.207,2.525-1.7,2.318-4.181a3.308,3.308,0,0,1-1.118.745c-.083,0-.166.041-.248.041a3.882,3.882,0,0,1-2.07-.414,13.073,13.073,0,0,1-.911,3.27,2.763,2.763,0,0,0,2.028.538" transform="translate(-72.928 -36.439)"/>
        <path id="Tracé_199" data-name="Tracé 199" d="M19.361,49.438,18.036,48.9c-4.512,1.821-6.623,4.8-6.623,12.335,0,8.941-.952,12.832-2.815,13.7a1.823,1.823,0,0,1-.662.083c-2.235,0-2.608-1.821-2.608-4.512l-.662-.455A5.526,5.526,0,0,1,.9,71.956c-.041,2.9,2.9,4.8,6,4.8a8.076,8.076,0,0,0,3.063-.58c3.436-1.283,5.505-5.3,6.374-12.708.538-4.719-.29-11.342,3.022-14.032" transform="translate(-0.899 -40.073)"/>
        <path id="Tracé_200" data-name="Tracé 200" d="M96.957,114.815l-.5-.124c-.331,1.573-1.159,3.063-1.78,3.187-.828.124-1.407-.207-1.366-2.608a51.292,51.292,0,0,1,1.407-10.307,6.605,6.605,0,0,0-1.366.373,5.374,5.374,0,0,0-2.318,1.532,2.708,2.708,0,0,0-2.732-.828,3.7,3.7,0,0,0-.828.248,6.305,6.305,0,0,0-2.525,1.738,11.344,11.344,0,0,0-2.484,4.015,9.934,9.934,0,0,0-.538,4.76,6.655,6.655,0,0,0,.455,1.738,4.609,4.609,0,0,1-1.325,1.076,2.078,2.078,0,0,1-.5.083c-1.614.124-1.9-2.608-1.945-4.139a55.868,55.868,0,0,1,1.035-11.01c.662-3.643.869-4.8.911-5.05a6.555,6.555,0,0,1-3.891.083c-.538,2.194-1.159,6.374-1.532,9.438a12.818,12.818,0,0,1-2.856,3.063c-.207-.538-.911-2.194-3.6-1.738a8.38,8.38,0,0,0-1.366.373,7.5,7.5,0,0,0-3.767,3.146,10.086,10.086,0,0,0-1.325,6.706v.041a10.416,10.416,0,0,1-4.388,3.891,5.109,5.109,0,0,1-1.738.29c-4.263-.124-5.671-3.974-5.588-9.479.124-6.54,2.732-10.886,4.926-11.88a1.208,1.208,0,0,1,.373-.083,2.6,2.6,0,0,1,2.9,2.442c.579,3.974-2.318,7.533-4.843,6.168-.869,1.614.373,3.229,3.1,2.856a6.959,6.959,0,0,0,1.325-.373c2.773-.952,4.719-4.139,4.1-8.279A5.173,5.173,0,0,0,56.1,101.9a9.161,9.161,0,0,0-2.07.621c-5.091,1.9-9.438,8.154-8.817,16.557.455,6.209,4.263,9.645,9.851,8.941a7.907,7.907,0,0,0,1.945-.5,11.7,11.7,0,0,0,5.712-4.719,5.525,5.525,0,0,0,.869,1.366,3.17,3.17,0,0,0,2.732.993,3.97,3.97,0,0,0,1.159-.29,6.9,6.9,0,0,0,3.6-3.27c.828-1.532,1.532-3.146,1.49-7,0-.331-.041-.621-.041-.869a8.6,8.6,0,0,0,2.194-1.614,27.119,27.119,0,0,0,.166,6.209,6.124,6.124,0,0,0,1.449,3.436,2.805,2.805,0,0,0,2.608.952,3.437,3.437,0,0,0,.869-.248,7.669,7.669,0,0,0,3.229-2.525,2.684,2.684,0,0,0,2.359,1.118,3.7,3.7,0,0,0,.828-.248,4.32,4.32,0,0,0,1.987-1.325,10.406,10.406,0,0,0,1.407-2.111c.414,1.987,1.987,3.187,4.636,2.359.207-.083.414-.124.621-.207a6.775,6.775,0,0,0,3.394-2.649,4.717,4.717,0,0,1-1.325-2.07m-28.809,7.244c-.083,0-.166.041-.248.041-1.035-.041-1.738-.952-1.9-2.732a13.612,13.612,0,0,1,.331-5.257A3.161,3.161,0,0,1,67.817,112a1.488,1.488,0,0,0-.083.455,1.93,1.93,0,0,0,1.821,1.863,2.759,2.759,0,0,0,.828,0,12.454,12.454,0,0,1,.041,1.283c.041,3.353-1.118,5.878-2.277,6.457m21.317-7.2a3.9,3.9,0,0,1-1.78,2.649.525.525,0,0,1-.248.041,1.3,1.3,0,0,1-1.035-.373,2.264,2.264,0,0,1-.538-1.325,12.549,12.549,0,0,1,.579-5.215c.5-1.614,1.076-2.649,1.821-3.022a.249.249,0,0,0,.166-.041c1.159-.124,1.449,1.118,1.532,1.7a13.355,13.355,0,0,1-.5,5.588" transform="translate(-26.837 -69.728)"/>
        <path id="Tracé_201" data-name="Tracé 201" d="M25.272,67.982c5.05-1.821,8.113-7.368,10.058-12.459a9.77,9.77,0,0,0,3.229,1.283c-1.7,2.939-2.359,4.926-2.194,6.375.166,1.242,1.076,2.525,2.277,2.318a1.97,1.97,0,0,0,.579-.207c1.118-.331,2.566-1.738,4.222-4.139a4.914,4.914,0,0,0,1.118,1.573,3.546,3.546,0,0,0,3.063.869,2.4,2.4,0,0,0,.869-.29c1.573-.538,3.56-2.318,5.3-5.133.166,3.022,1.407,4.139,2.4,4.139a2.732,2.732,0,0,0,1.118-.248c1.325-.414,2.484-1.945,3.518-3.932.373-.745-1.738.455-2.442.621s-1.035-.5-1.035-1.821c0-1.738,1.283-8.61,1.325-8.858.041-.29-.041-.29-.166-.248l-.248.083c-.041,0-.041,0-.083.041-.124.041-3.1,1.2-3.1,1.2-.579,2.608-.993,4.388-1.2,5.919-1.9,3.229-3.229,4.926-4.263,5.464a.525.525,0,0,1-.248.041c-1.614.166-2.691-.58-3.022-2.815,5.3-2.318,6.085-4.636,5.836-6.54-.166-1.242-1.159-1.945-2.691-1.945a4.476,4.476,0,0,0-1.863.414c-2.566.911-5.133,4.1-4.677,9.686v.041a7.768,7.768,0,0,1-2.152,2.525c-.041,0-.124.041-.166.041a.885.885,0,0,1-.745-.373c-1.242-1.7,2.773-8.32,1.366-8.361-.662,0-3.643.414-4.8-.786.621-2.111.414-3.353-.538-3.436a1.476,1.476,0,0,0-.911.207c-.993.29-1.9,1.449-1.9,3.394a2.965,2.965,0,0,0,.869,1.9,35.247,35.247,0,0,1-3.27,7.492,11.666,11.666,0,0,0,.207-1.78c.041-3.436-1.821-6.416-5.505-7.037,3.85-1.78,5.754-4.512,5.464-7.616-.331-3.974-4.636-6.333-11.052-5.257a23.281,23.281,0,0,0-3.974,1.076,14.807,14.807,0,0,0-3.311,1.738,12.874,12.874,0,0,0-4.3,4.843A9.3,9.3,0,0,0,7.142,53.08c.29,2.359,1.532,2.939,2.691,2.939.993,0,.993-.662,2.939-1.738l.166-1.076a2.17,2.17,0,0,1-2.4-2.111c-.248-1.863.5-3.767,2.235-5.629a10.284,10.284,0,0,1,3.85-2.732,11.261,11.261,0,0,1,2.111-.538c5.34-.745,7.2,1.656,7.2,4.843,0,3.27-2.07,5.629-3.311,5.836l.331.745c1.738,0,3.022,2.691,3.022,7,0,3.684-.869,5.712-2.152,6.333-.083.041-.207.041-.29.083-.5.083-1.159-.207-1.987-1.407H20.76a7.3,7.3,0,0,0-.786,2.152c.083.621,1.573,1.242,3.353.911.7-.248,1.366-.455,1.945-.7M48.328,50.8c.041,0,.083-.041.166-.041.869-.124,1.2.373,1.2,1.366a6.279,6.279,0,0,1-3.353,4.553c-.124-3.1.869-5.257,1.987-5.878" transform="translate(-4.534 -34.898)"/>
        <path id="Tracé_202" data-name="Tracé 202" d="M177.647,42.9c-.786,1.78-1.407,2.525-2.318,2.98h-.166c-.786,0-.745-.952-.745-1.283.124-2.028,1.035-4.553,1.035-7.037A1.892,1.892,0,0,0,172.8,35.7c-1.945.7-3.725,2.856-4.926,4.595a125.759,125.759,0,0,1,2.277-12.5c.041-.166.041-.248-.166-.207s-3.311.828-3.311.828c-2.277,10.224-2.773,15.315-2.484,21.566l.248.124a6.571,6.571,0,0,0,2.649.869h.538a50.006,50.006,0,0,1-.041-7.865c.993-1.821,3.436-4.677,4.1-4.3,1.076.579-2.856,11.01,1.035,11.549,2.111.29,4.181-3.1,5.754-6.581,0-.041,0-.041.041-.083Z" transform="translate(-96.558 -27.575)"/>
        <path id="Tracé_203" data-name="Tracé 203" d="M151.487,67.577c-3.518.083-5.629-5.215-10.679-4.181l4.553-7.368c1.325-2.4,1.987-3.808,1.945-4.181,0-.124-.124-.124-.331-.083q-.186.062-1.366.5c-.786.29-2.9.745-3.891.952a20.147,20.147,0,0,1-2.111.207,1.44,1.44,0,0,1-1.2-.538l-.538.083c-.993,2.691-.7,3.684.083,3.891,1.283.29,5.009-.455,5.588-.662,0,0-3.063,4.636-4.1,6.581A32.213,32.213,0,0,0,137,68.032c0,.083.083.083.166.083a3.028,3.028,0,0,0,.911-.124c.786-1.159,1.118-1.532,2.277-1.573,3.436-.083,5.961,4.139,9.81,4.1,1.573,0,3.022-.745,6.168-3.808l-.373-1.035c-2.732,1.821-3.27,1.9-4.47,1.9" transform="translate(-80.664 -41.737)"/>
      </g>
    </g>
  </g>
</svg>
