<svg xmlns="http://www.w3.org/2000/svg" width="210" height="79" viewBox="0 0 210 79">
  <g id="Groupe_311" data-name="Groupe 311" transform="translate(-1274 -4661)">
    <rect id="Rectangle_219" data-name="Rectangle 219" width="210" height="79" transform="translate(1274 4661)" fill="none"/>
    <g id="brest-metropole-et-ville-logo-vector" transform="translate(1340.333 4676.576)">
      <path id="Tracé_210" data-name="Tracé 210" d="M25.988,171.581h1.005v4.987h-.67v-4.1H26.31l-1.675,4.1h-.451l-1.688-4.1h-.013v4.1h-.67v-4.987h1.005l1.585,3.776h.026Zm4.575-1.289-.735,1.018h.58l1.044-1.018Zm-1.108,4.046h2.371v-.631H29.455v-1.482h2.539v-.631H28.772v4.987h3.351v-.631H29.455Zm3.608-2.113h1.611v4.356h.67v-4.356h1.611v-.631H33.063Zm6.714,1.559a1.967,1.967,0,0,0,.387-.039,1.379,1.379,0,0,0,.348-.116.741.741,0,0,0,.245-.245.988.988,0,0,0,0-.825.638.638,0,0,0-.245-.245,1.381,1.381,0,0,0-.348-.116,1.953,1.953,0,0,0-.387-.026h-.889v1.611h.889m1.07.361a1.607,1.607,0,0,1-.515.155l1.418,2.268H40.9l-1.263-2.191h-.747v2.191h-.67v-4.987h1.753a1.966,1.966,0,0,1,.786.129,1.269,1.269,0,0,1,.49.335,1.033,1.033,0,0,1,.245.451,1.683,1.683,0,0,1,.077.49,1.188,1.188,0,0,1-.09.464,1.31,1.31,0,0,1-.631.7m6.25.709a2.384,2.384,0,0,0,0-1.546,1.853,1.853,0,0,0-.387-.631,1.787,1.787,0,0,0-.593-.425,2.01,2.01,0,0,0-1.546,0,1.787,1.787,0,0,0-.593.425,1.853,1.853,0,0,0-.387.631,2.384,2.384,0,0,0,0,1.546,1.853,1.853,0,0,0,.387.631,1.787,1.787,0,0,0,.593.425,2.011,2.011,0,0,0,1.546,0,1.787,1.787,0,0,0,.593-.425,1.853,1.853,0,0,0,.387-.631m.116-2.642a2.47,2.47,0,0,1,.541.838,2.766,2.766,0,0,1,.193,1.031,2.671,2.671,0,0,1-.193,1.031,2.6,2.6,0,0,1-.541.838,2.651,2.651,0,0,1-.825.554,2.791,2.791,0,0,1-1.044.206,2.578,2.578,0,0,1-1.057-.206,2.447,2.447,0,0,1-.825-.554,2.68,2.68,0,0,1-.541-.838,2.846,2.846,0,0,1,0-2.062,2.6,2.6,0,0,1,.541-.838,2.651,2.651,0,0,1,.825-.554,2.808,2.808,0,0,1,1.057-.206,2.517,2.517,0,0,1,1.044.206,2.326,2.326,0,0,1,.825.554m4.794,1.186a.988.988,0,0,0,0-.825.638.638,0,0,0-.245-.245,1.379,1.379,0,0,0-.348-.116,1.95,1.95,0,0,0-.387-.026h-.889V173.8h.889c.129,0,.258-.013.387-.026a1.381,1.381,0,0,0,.348-.116.928.928,0,0,0,.245-.258m.49-1.353a1.033,1.033,0,0,1,.245.451,1.6,1.6,0,0,1,.064.49,2.115,2.115,0,0,1-.064.477,1.183,1.183,0,0,1-.245.451,1.249,1.249,0,0,1-.49.322,2.007,2.007,0,0,1-.786.129H50.138v2.191h-.67v-4.987h1.74a1.966,1.966,0,0,1,.786.129,1.722,1.722,0,0,1,.5.348m5.722,2.809a2.384,2.384,0,0,0,0-1.546,1.854,1.854,0,0,0-.387-.631,1.787,1.787,0,0,0-.593-.425,2.01,2.01,0,0,0-1.546,0,1.787,1.787,0,0,0-.593.425,1.824,1.824,0,0,0-.374.631,2.384,2.384,0,0,0,0,1.546,2.049,2.049,0,0,0,.374.631,1.787,1.787,0,0,0,.593.425,2.011,2.011,0,0,0,1.546,0,1.787,1.787,0,0,0,.593-.425,1.853,1.853,0,0,0,.387-.631m.116-2.642a2.68,2.68,0,0,1,.541.838,2.766,2.766,0,0,1,.193,1.031,2.671,2.671,0,0,1-.193,1.031,2.6,2.6,0,0,1-.541.838,2.651,2.651,0,0,1-.825.554,2.791,2.791,0,0,1-1.044.206,2.517,2.517,0,0,1-1.044-.206,2.447,2.447,0,0,1-.825-.554,2.263,2.263,0,0,1-.528-.838,2.846,2.846,0,0,1,0-2.062,2.8,2.8,0,0,1,.528-.838,2.651,2.651,0,0,1,.825-.554,2.792,2.792,0,0,1,1.044-.206,2.517,2.517,0,0,1,1.044.206,2.326,2.326,0,0,1,.825.554m2.925-.631h-.67v4.987h2.964v-.631H61.26Zm4.2,2.758h2.371v-.631H65.461v-1.482H68v-.631H64.778v4.987h3.351v-.631H65.461Zm9.858.348h-.039a1.276,1.276,0,0,0-1.108-.631,1.316,1.316,0,0,0-1.3,1.263h.657a.647.647,0,0,1,.644-.606.635.635,0,0,1,.644.631v.013a1.221,1.221,0,1,1-1.211-1.495V173.2a.638.638,0,0,1-.619-.631.645.645,0,0,1,1.289-.026h.657a1.3,1.3,0,1,0-2.255.9l-.013.039a1.868,1.868,0,1,0,2.809,1.894l.013-.026a1.617,1.617,0,0,0,.941-1.4h-.644a.951.951,0,0,1-.464.735m6.134.954H81.44l-1.469-4.059h-.786l1.92,4.987h.631l1.959-4.987h-.735Zm3.4.928h.67v-4.987h-.67v4.987Zm3.183-4.987h-.67v4.987h2.964v-.631H88.039Zm4.2,0h-.683v4.987h2.964v-.631H92.227v-4.356Zm4.188,2.758H98.8v-.631H96.428v-1.482h2.539v-.631H95.745v4.987H99.1v-.631H96.428ZM56.5,149.7v-2.861a10.513,10.513,0,0,0-7.822,3.376v-3.338H45.821V168.23h2.861V157.173A7.776,7.776,0,0,1,56.5,149.7m19.846,7.822a7.791,7.791,0,0,1-7.809,7.822V168.2a10.607,10.607,0,0,0,10.683-10.683,7.8,7.8,0,0,1,7.822-7.822v-2.861a10.618,10.618,0,0,0-10.7,10.683m14.962,0V149.7h7.771v-2.861H91.312v-3.879H88.451v14.562a10.6,10.6,0,0,0,10.683,10.632v-2.861a7.766,7.766,0,0,1-7.822-7.771m-59,7.835a7.861,7.861,0,0,0,0-15.722H24.661v15.722h7.655m-7.655-18.583h8.505a3.95,3.95,0,0,0,0-7.9H24.661Zm18.377,10.773A10.618,10.618,0,0,1,32.573,168.23H21.8V136H33.334a6.821,6.821,0,0,1,6.624,6.843,6.746,6.746,0,0,1-2.526,5.258,10.752,10.752,0,0,1,5.606,9.446M67.1,165.3a7.736,7.736,0,0,1-5.413-2.281l-.013-.013a.045.045,0,0,0-.026-.013,7.7,7.7,0,0,1-1.624-2.371,1.68,1.68,0,0,0-.1-.219,7.856,7.856,0,0,1,10.245-10.232,1.676,1.676,0,0,1,.219.1,8.012,8.012,0,0,1,2.4,1.637h.026l2.01-2.036a10.819,10.819,0,0,0-15.207,0,10.647,10.647,0,0,0-1.817,12.668,1.284,1.284,0,0,1,.1.18l.026.026a10.747,10.747,0,0,0,1.727,2.281.013.013,0,0,0,.013.013h0a.013.013,0,0,1,.013.013A10.594,10.594,0,0,0,67.11,168.2v-2.9Z" transform="translate(-21.8 -136)"/>
      <path id="Tracé_211" data-name="Tracé 211" d="M161.136,261.568h0l.013.013-3.157,3.157h-4.046l5.451-5.464a11.707,11.707,0,0,0,1.74,2.294h0m13.158-13.145h0a8.025,8.025,0,0,0-2.41-1.624l-1.083,1.082-8.17,8.17a6.438,6.438,0,0,0,1.546,2.5l9.137-9.137.979-.992ZM138.3,280.37h4.046l4.987-4.987h-4.046Z" transform="translate(-123.287 -232.521)"/>
    </g>
  </g>
</svg>
