<svg xmlns="http://www.w3.org/2000/svg" xmlns:xlink="http://www.w3.org/1999/xlink" width="210" height="79" viewBox="0 0 210 79">
  <defs>
    <clipPath id="clip-path">
      <path id="Tracé_174" data-name="Tracé 174" d="M35.226,41.892a2.885,2.885,0,0,1-2.877,2.877H8.877A2.849,2.849,0,0,1,6,41.892V18.477A2.885,2.885,0,0,1,8.877,15.6H32.292a2.885,2.885,0,0,1,2.877,2.877V41.892Z" transform="translate(-6 -15.6)"/>
    </clipPath>
  </defs>
  <g id="Groupe_307" data-name="Groupe 307" transform="translate(-481 -4471)">
    <rect id="Rectangle_218" data-name="Rectangle 218" width="210" height="79" transform="translate(481 4471)" fill="none"/>
    <g id="Logo-Institutionnel-CMB-Noir-RVB" transform="translate(514 4494)">
      <g id="Groupe_171" data-name="Groupe 171" transform="translate(0 0.345)">
        <path id="Tracé_172" data-name="Tracé 172" d="M35.168,41.892a2.849,2.849,0,0,1-2.877,2.877H8.877A2.849,2.849,0,0,1,6,41.892V18.477A2.885,2.885,0,0,1,8.877,15.6H32.292a2.885,2.885,0,0,1,2.877,2.877Z" transform="translate(-6 -15.6)" fill="none" stroke="#000" stroke-miterlimit="10" stroke-width="1"/>
        <g id="Groupe_170" data-name="Groupe 170">
          <g id="Groupe_169" data-name="Groupe 169" clip-path="url(#clip-path)">
            <g id="Groupe_168" data-name="Groupe 168" transform="translate(0 0)">
              <g id="Groupe_167" data-name="Groupe 167">
                <path id="Tracé_173" data-name="Tracé 173" d="M35.226,32.859a20.457,20.457,0,0,0-14.5-6.213c-1.438-2.3-2.589-7.537-2.474-11.046H14.687c-.115,4.027,1.151,9.9,3.107,13.06A15.941,15.941,0,0,1,6,35.333V38.9a20,20,0,0,0,15.073-8.687c4.315.23,10.471,1.841,14.153,8.8Z" transform="translate(-6 -15.6)"/>
              </g>
            </g>
          </g>
        </g>
      </g>
      <g id="Groupe_178" data-name="Groupe 178" transform="translate(35.842)">
        <g id="Groupe_174" data-name="Groupe 174" transform="translate(0.058)">
          <g id="Groupe_172" data-name="Groupe 172">
            <path id="Tracé_175" data-name="Tracé 175" d="M77.778,19.946a7.955,7.955,0,0,0-2.646-.518,3.655,3.655,0,0,0-3.912,3.912,3.776,3.776,0,0,0,4.027,3.912,12.536,12.536,0,0,0,2.531-.4l.633,2.071a5.417,5.417,0,0,1-1.036.345,9.587,9.587,0,0,1-2.244.288c-4.085,0-6.731-2.359-6.731-6.1S70.931,17.3,74.844,17.3a9.789,9.789,0,0,1,3.452.633Z" transform="translate(-68.4 -15.977)"/>
            <path id="Tracé_176" data-name="Tracé 176" d="M88,22.53h2.474V23.8a2.686,2.686,0,0,1,2.474-1.5,3.359,3.359,0,0,1,1.151.23l-.575,2.3a3.3,3.3,0,0,0-.69-.058,1.792,1.792,0,0,0-1.611.69c-.345.4-.4.805-.4,1.956v3.912H88Z" transform="translate(-76.724 -18.1)"/>
            <path id="Tracé_177" data-name="Tracé 177" d="M101.146,24.78c.115,1.093,1.036,1.783,2.474,1.783a7.318,7.318,0,0,0,2.359-.518l.69,1.668c-.288.115-.518.23-.633.288a7.914,7.914,0,0,1-2.589.46c-2.992,0-4.948-1.841-4.948-4.6a4.322,4.322,0,0,1,4.43-4.66c2.7,0,4.257,1.841,4.257,5.063v.518h-6.041Zm0-1.841h3.624a1.8,1.8,0,0,0-1.783-1.841A1.892,1.892,0,0,0,101.146,22.939ZM103.218,15l2.186,1.093-2.129,2.589-1.668-.805Z" transform="translate(-81.183 -15)"/>
            <path id="Tracé_178" data-name="Tracé 178" d="M121.959,15.7h2.7V28.587h-2.474V27.379a3.569,3.569,0,0,1-2.934,1.438c-2.3,0-3.855-1.783-3.855-4.6s1.553-4.718,3.855-4.718a3.678,3.678,0,0,1,2.7,1.208Zm-3.74,8.515c0,1.5.748,2.474,1.9,2.474s1.9-.921,1.9-2.474-.748-2.474-1.9-2.474C118.909,21.683,118.219,22.661,118.219,24.215Z" transform="translate(-88.36 -15.297)"/>
            <path id="Tracé_179" data-name="Tracé 179" d="M134.6,16.1h2.762v2.589H134.6Zm0,3.8h2.7v8.917h-2.7Z" transform="translate(-96.514 -15.467)"/>
            <path id="Tracé_180" data-name="Tracé 180" d="M141.4,21.086h1.323V18.9h2.7v2.186h2.014v2.071h-2.014v4.085c.058.633.46.921,1.266.921a2.861,2.861,0,0,0,.921-.173l.345,1.783a5.676,5.676,0,0,1-2.014.345,3.231,3.231,0,0,1-2.359-.748c-.633-.518-.805-1.151-.805-2.474v-3.74h-1.323V21.086Z" transform="translate(-99.402 -16.656)"/>
          </g>
          <g id="Groupe_173" data-name="Groupe 173" transform="translate(52.699 0.403)">
            <path id="Tracé_181" data-name="Tracé 181" d="M160,17.7h4.142l2.531,7.191a10.836,10.836,0,0,1,.345,2.646,15.662,15.662,0,0,1,.345-2.646L169.9,17.7h4.142V29.494h-2.646l.058-7.882c0-.173.115-1.093.23-2.014a9.6,9.6,0,0,1-.288,1.093,6.977,6.977,0,0,1-.288.805l-2.761,7.882h-2.589L162.992,21.5a4.126,4.126,0,0,0-.288-.805,9.585,9.585,0,0,1-.288-1.093l.058.46.058.633c.058.518.115.748.115.863l.058,7.882H160Z" transform="translate(-160 -16.549)"/>
            <path id="Tracé_182" data-name="Tracé 182" d="M195.6,27.935c0,2.416-1.611,3.912-4.315,3.912-2.819,0-4.487-1.5-4.487-3.912V22.7h2.7v4.775a2.591,2.591,0,0,0,.23,1.323,1.694,1.694,0,0,0,1.438.805c1.093,0,1.668-.748,1.668-2.129V22.7h2.7v5.235Z" transform="translate(-171.382 -18.673)"/>
            <path id="Tracé_183" data-name="Tracé 183" d="M204.1,21.086h1.323V18.9h2.7v2.186h2.014v2.071h-2.014v4.085c.058.633.46.921,1.266.921a2.861,2.861,0,0,0,.921-.173l.345,1.783a5.675,5.675,0,0,1-2.014.345,3.231,3.231,0,0,1-2.359-.748c-.633-.518-.805-1.151-.805-2.474v-3.74h-1.323V21.086Z" transform="translate(-178.729 -17.059)"/>
            <path id="Tracé_184" data-name="Tracé 184" d="M225.8,27.935c0,2.416-1.611,3.912-4.315,3.912-2.819,0-4.487-1.5-4.487-3.912V22.7h2.7v4.775a2.59,2.59,0,0,0,.23,1.323,1.772,1.772,0,0,0,1.438.805c1.093,0,1.668-.748,1.668-2.129V22.7h2.7v5.235Z" transform="translate(-184.207 -18.673)"/>
            <path id="Tracé_185" data-name="Tracé 185" d="M236.846,27.881c.115,1.093,1.036,1.783,2.474,1.783a7.318,7.318,0,0,0,2.359-.518l.69,1.668c-.288.115-.518.23-.633.288a7.913,7.913,0,0,1-2.589.46c-2.992,0-4.948-1.841-4.948-4.6a4.322,4.322,0,0,1,4.43-4.66c2.7,0,4.257,1.841,4.257,5.063v.518h-6.041Zm-.058-1.841h3.624A1.8,1.8,0,0,0,238.63,24.2,1.977,1.977,0,0,0,236.789,26.04Z" transform="translate(-191.512 -18.503)"/>
            <path id="Tracé_186" data-name="Tracé 186" d="M251.6,15.7h2.7V28.587h-2.7Z" transform="translate(-198.901 -15.7)"/>
          </g>
        </g>
        <g id="Groupe_177" data-name="Groupe 177" transform="translate(0 16.396)">
          <g id="Groupe_175" data-name="Groupe 175">
            <path id="Tracé_187" data-name="Tracé 187" d="M74.859,43.5h2.7V56.387H75.089V55.121a3.569,3.569,0,0,1-2.934,1.438c-2.3,0-3.855-1.783-3.855-4.6s1.553-4.718,3.855-4.718a3.678,3.678,0,0,1,2.7,1.208Zm-3.74,8.457c0,1.5.748,2.474,1.9,2.474s1.9-.921,1.9-2.474-.748-2.474-1.9-2.474C71.809,49.426,71.119,50.4,71.119,51.957Z" transform="translate(-68.3 -43.5)"/>
            <path id="Tracé_188" data-name="Tracé 188" d="M89.246,55.681c.115,1.093,1.036,1.783,2.474,1.783a7.318,7.318,0,0,0,2.359-.518l.69,1.668c-.288.115-.518.23-.633.288a7.913,7.913,0,0,1-2.589.46c-2.992,0-4.948-1.841-4.948-4.6a4.322,4.322,0,0,1,4.43-4.66c2.7,0,4.257,1.841,4.257,5.063v.518Zm-.058-1.841h3.624A1.8,1.8,0,0,0,91.03,52,1.887,1.887,0,0,0,89.189,53.84Z" transform="translate(-76.072 -46.303)"/>
          </g>
          <g id="Groupe_176" data-name="Groupe 176" transform="translate(23.588 1.093)">
            <path id="Tracé_189" data-name="Tracé 189" d="M109.358,45.4h4.372a6.2,6.2,0,0,1,2.646.4,2.927,2.927,0,0,1,1.611,2.7A2.581,2.581,0,0,1,116.2,51.1a2.576,2.576,0,0,1,2.359,2.762,3.175,3.175,0,0,1-1.668,2.819c-.805.46-1.266.518-3.107.518H109.3V45.4Zm2.819,4.718h1.093c1.266,0,1.956-.46,1.956-1.381,0-.863-.633-1.323-1.841-1.323h-1.151v2.7Zm0,4.948h1.5a2.959,2.959,0,0,0,1.438-.23,1.355,1.355,0,0,0,.633-1.208c0-.978-.633-1.438-2.014-1.438h-1.5v2.877Z" transform="translate(-109.3 -45.4)"/>
            <path id="Tracé_190" data-name="Tracé 190" d="M127.3,50.23h2.474V51.5a2.686,2.686,0,0,1,2.474-1.5,3.359,3.359,0,0,1,1.151.23l-.575,2.3a3.3,3.3,0,0,0-.69-.058,1.792,1.792,0,0,0-1.611.69c-.345.4-.4.805-.4,1.956v3.912h-2.7v-8.8Z" transform="translate(-116.944 -47.354)"/>
            <path id="Tracé_191" data-name="Tracé 191" d="M140.746,55.681c.115,1.093,1.036,1.783,2.474,1.783a7.318,7.318,0,0,0,2.359-.518l.69,1.668c-.288.115-.518.23-.633.288a7.913,7.913,0,0,1-2.589.46c-2.992,0-4.948-1.841-4.948-4.6a4.322,4.322,0,0,1,4.43-4.66c2.7,0,4.257,1.841,4.257,5.063v.518Zm-.058-1.841h3.624A1.8,1.8,0,0,0,142.53,52,1.887,1.887,0,0,0,140.689,53.84Z" transform="translate(-121.531 -47.396)"/>
            <path id="Tracé_192" data-name="Tracé 192" d="M153.9,48.786h1.323V46.6h2.7v2.186h2.014v2.071h-2.014v4.085c.058.575.46.921,1.266.921a2.861,2.861,0,0,0,.921-.173l.345,1.783a5.676,5.676,0,0,1-2.014.345,3.231,3.231,0,0,1-2.359-.748c-.633-.518-.805-1.151-.805-2.474v-3.74h-1.323V48.786Z" transform="translate(-128.241 -45.91)"/>
            <path id="Tracé_193" data-name="Tracé 193" d="M172.3,53.452c0-.978-.69-1.553-1.956-1.553a7.251,7.251,0,0,0-2.244.46l-.575-1.726a4.834,4.834,0,0,1,.69-.23,9.312,9.312,0,0,1,2.531-.4c2.7,0,4.142,1.266,4.142,3.682V59.09h-2.359V58a3.6,3.6,0,0,1-2.819,1.266,2.9,2.9,0,0,1-3.107-2.819c0-1.9,1.611-2.992,4.6-2.992a8.1,8.1,0,0,1,1.151.058v-.058Zm-.058,1.668h-.633c-1.668,0-2.474.46-2.474,1.323a1.136,1.136,0,0,0,1.266,1.036,1.714,1.714,0,0,0,1.841-1.668Z" transform="translate(-133.634 -47.354)"/>
            <path id="Tracé_194" data-name="Tracé 194" d="M189.774,50.273h2.474v7.882c0,2.819-1.783,4.487-4.775,4.487a11.5,11.5,0,0,1-2.819-.4c-.288-.115-.518-.173-.921-.345l.748-1.841a6.624,6.624,0,0,0,2.589.575c1.611,0,2.589-.748,2.589-2.014V58.1a3.322,3.322,0,0,1-2.7,1.208c-2.359,0-3.855-1.783-3.855-4.6,0-2.7,1.553-4.6,3.8-4.6a3.76,3.76,0,0,1,2.934,1.381V50.273Zm-4.027,4.545c.057,1.5.748,2.3,1.9,2.3,1.208,0,1.956-.921,1.956-2.474,0-1.5-.69-2.416-1.956-2.416-1.151,0-1.9.921-1.9,2.359Z" transform="translate(-140.642 -47.396)"/>
            <path id="Tracé_195" data-name="Tracé 195" d="M201.9,50.273h2.474V51.6a3.542,3.542,0,0,1,2.934-1.5,3.279,3.279,0,0,1,3.394,3.567V59.19H208V54.415a2.812,2.812,0,0,0-.058-.748A1.393,1.393,0,0,0,206.5,52.4a1.908,1.908,0,0,0-1.5.748,2.137,2.137,0,0,0-.345,1.5v4.487h-2.7v-8.86Z" transform="translate(-148.626 -47.396)"/>
            <path id="Tracé_196" data-name="Tracé 196" d="M221.946,55.681c.115,1.093,1.036,1.783,2.474,1.783a7.318,7.318,0,0,0,2.359-.518l.69,1.668c-.288.115-.518.23-.633.288a7.913,7.913,0,0,1-2.589.46c-2.992,0-4.948-1.841-4.948-4.6a4.322,4.322,0,0,1,4.43-4.66c2.7,0,4.257,1.841,4.257,5.063v.518Zm-.057-1.841h3.624A1.8,1.8,0,0,0,223.73,52,1.887,1.887,0,0,0,221.889,53.84Z" transform="translate(-156.015 -47.396)"/>
          </g>
        </g>
      </g>
    </g>
  </g>
</svg>
