<svg xmlns="http://www.w3.org/2000/svg" width="210" height="79" viewBox="0 0 210 79">
  <g id="Groupe_314" data-name="Groupe 314" transform="translate(-481 -4661)">
    <rect id="Rectangle_222" data-name="Rectangle 222" width="210" height="79" transform="translate(481 4661)" fill="none"/>
    <g id="fnac-2" transform="translate(558 4672)">
      <path id="Soustraction_1" data-name="Soustraction 1" d="M48.283,56.272,0,48.283,5.162,17.094l.009,0H6.666V25.43H9.56V17.1h5.447v8.331H17.9V20.1a2.776,2.776,0,0,1,.854-2.171,4.079,4.079,0,0,1,2.784-.83,3.926,3.926,0,0,1,2.783.866,2.9,2.9,0,0,1,.813,2.2v5.265h2.9c0-.007,0-.138,0-.355,0-1.1,0-4.46,0-6.178a3.4,3.4,0,0,0-.981-2.459A4.4,4.4,0,0,0,25.3,15.4a9.094,9.094,0,0,0-2.865-.4,7.252,7.252,0,0,0-3.448.68A2.628,2.628,0,0,0,17.915,16.7V15.233H9.576v-.267A2.627,2.627,0,0,1,10.251,13a2.758,2.758,0,0,1,1.977-.638c1.956,0,2.513.856,2.8,1.692h2.894a3.416,3.416,0,0,0-1.258-2.341,4.628,4.628,0,0,0-1.688-.793,10.967,10.967,0,0,0-2.763-.3c-2.272,0-3.79.444-4.639,1.358a4.2,4.2,0,0,0-.889,2.983v.285H5.472v-.032L7.989,0,56.272,7.989,54.613,18.013c-.99-1.949-3.126-2.979-6.178-2.979a10.727,10.727,0,0,0-2.959.374,5.978,5.978,0,0,0-2.132,1.071,4.474,4.474,0,0,0-1.29,1.69,5.532,5.532,0,0,0-.433,2.231,5.2,5.2,0,0,0,.476,2.253,4.534,4.534,0,0,0,1.353,1.658,7.994,7.994,0,0,0,4.893,1.373A7.942,7.942,0,0,0,53.59,24.2L48.283,56.272ZM35.171,16.562H35.2a4.664,4.664,0,0,1,2.257.448,1.362,1.362,0,0,1,.754,1.241c0,1-.894,1.074-3.539,1.3h-.007l-.75.066a13.333,13.333,0,0,0-4.255.77c-.717.367-.984.915-.987,2.024a2.723,2.723,0,0,0,.419,1.539,2.757,2.757,0,0,0,1.123.939,8.173,8.173,0,0,0,3.493.6h.046c2.8,0,3.729-.74,4.441-1.5v1.435h2.9V19a3.417,3.417,0,0,0-2.012-3.453,10.493,10.493,0,0,0-4.2-.612,6.543,6.543,0,0,0-2.67.544,6.447,6.447,0,0,0-3.084,2.939h2.914C32.221,17.556,32.74,16.562,35.171,16.562Zm-.8,7.541h-.022a3.687,3.687,0,0,1-1.882-.433,1.214,1.214,0,0,1-.667-1.02c0-1.251,1.629-1.364,2.816-1.447l.189-.013a11.294,11.294,0,0,0,3.119-.539.6.6,0,0,1,.211-.09.051.051,0,0,1,.038.015c.023.023.033.076.033.177a3.441,3.441,0,0,1-.7,2.17A3.842,3.842,0,0,1,34.368,24.1Zm13.993-.285h-.012a4.093,4.093,0,0,1-2.732-1,3.2,3.2,0,0,1-1.107-2.408,3.117,3.117,0,0,1,.31-1.339,3.6,3.6,0,0,1,.838-1.118,4.088,4.088,0,0,1,2.76-1.052h.011a4.029,4.029,0,0,1,3.188,1.685h2.9l-.546,3.32-.041.24h-2.2a3.739,3.739,0,0,1-1.4,1.211A4.362,4.362,0,0,1,48.361,23.818Z"/>
    </g>
  </g>
</svg>
