<svg xmlns="http://www.w3.org/2000/svg" width="210" height="79" viewBox="0 0 210 79">
  <g id="Groupe_308" data-name="Groupe 308" transform="translate(-750 -4471)">
    <rect id="Rectangle_217" data-name="Rectangle 217" width="210" height="79" transform="translate(750 4471)" fill="none"/>
    <g id="layer1" transform="translate(779 4497)">
      <path id="path4051" d="M19.888,3.281l3.133,9.533h.09L19.978,3.281ZM33.561,14.09l-.09.067-8.1,5.908,3.088,9.578.022.067.067-.045-3.066-9.578,8.1-5.93ZM19.217,24.563l-8.123,5.863.067.045,8.1-5.885Z" transform="translate(-5.332 -3.281)"/>
      <path id="path50" d="M434.921,457.163c0,.92-.4,1.194-1.889,1.715a9.675,9.675,0,0,1-2.387.647c-.5,0-.721-.373-.721-1.144,0-1.839.521-4.077,2.461-4.077,1.79,0,2.536,1.94,2.536,2.859m-19.395,8.031a.423.423,0,0,0-.1-.323c-.2-.2-.945-.323-1.318-.7-.272-.274-.448-.746-.448-1.84v-4.2c0-.324.075-.522.4-.522h4.277c.323,0,.4.2.4.522v4.2c0,1.094-.174,1.566-.448,1.84-.373.373-1.119.5-1.318.7a.42.42,0,0,0-.1.323,3.5,3.5,0,0,0,.2,1.392c.1.1.249.124.572.124h6.987c.323,0,.472-.024.572-.124a3.488,3.488,0,0,0,.2-1.392.423.423,0,0,0-.1-.323c-.174-.174-.945-.323-1.318-.7a2.333,2.333,0,0,1-.422-1.642V450.922a1.689,1.689,0,0,1,.372-1.217c.4-.4,1.194-.474,1.368-.648a.525.525,0,0,0,.1-.347,3.194,3.194,0,0,0-.2-1.218c-.1-.1-.2-.125-.572-.125h-6.739c-.273,0-.372.026-.447.1a3.368,3.368,0,0,0-.149,1.268.557.557,0,0,0,.075.322,9.778,9.778,0,0,1,.995.573c.273.274.372.572.372,1.417v3.307a.32.32,0,0,1-.3.3h-4.476a.32.32,0,0,1-.3-.3v-3.307c0-.845.1-1.143.373-1.417a9.673,9.673,0,0,1,.995-.573.558.558,0,0,0,.075-.322,3.365,3.365,0,0,0-.15-1.268c-.074-.075-.174-.1-.448-.1h-6.738c-.373,0-.473.026-.573.125a3.215,3.215,0,0,0-.2,1.218.52.52,0,0,0,.1.347c.174.175.969.25,1.367.648a1.685,1.685,0,0,1,.373,1.217v11.611a2.328,2.328,0,0,1-.422,1.642c-.373.373-1.144.523-1.318.7a.42.42,0,0,0-.1.323,3.511,3.511,0,0,0,.2,1.392c.1.1.2.124.573.124h6.987c.323,0,.472-.024.572-.124a3.5,3.5,0,0,0,.2-1.392m23.1-.348c.721-.721.9-1.144.9-1.492a1.259,1.259,0,0,0-.4-.969,1.1,1.1,0,0,0-.846-.373.86.86,0,0,0-.721.324,5.7,5.7,0,0,1-4.178,1.69c-1.715,0-2.785-1.143-2.785-1.865,0-.2.174-.372.621-.5,4.775-1.492,6.764-2.486,7.509-3.232a1.777,1.777,0,0,0,.6-1.293c0-1.89-2.734-5.245-6.936-5.245a6.857,6.857,0,0,0-4.823,2.013,7.746,7.746,0,0,0-2.138,5.719,7.24,7.24,0,0,0,2.113,5.47,7.517,7.517,0,0,0,5.4,2.014,7.959,7.959,0,0,0,5.693-2.263m7.782-12.109a.4.4,0,0,0-.448-.448h-4.8c-.274,0-.372,0-.448.1a3.224,3.224,0,0,0-.2,1.219.537.537,0,0,0,.1.3c.175.224.547.3.871.572a2.108,2.108,0,0,1,.323,1.417v6.638a2.487,2.487,0,0,1-.349,1.642c-.373.373-.995.547-1.168.721a.473.473,0,0,0-.074.324,3.334,3.334,0,0,0,.2,1.367.63.63,0,0,0,.472.124h6.391a.628.628,0,0,0,.472-.124,3.5,3.5,0,0,0,.174-1.367.468.468,0,0,0-.074-.324,9.646,9.646,0,0,1-1.119-.721c-.248-.249-.323-.8-.323-1.642v-9.8Zm-2.66-6.265a2.426,2.426,0,1,0,2.512,2.412,2.448,2.448,0,0,0-2.512-2.412m19.269,9.672c0-2.785-1.442-4.2-3.7-4.2a6.5,6.5,0,0,0-3.357,1.045c-.4.249-.522.323-.621.323-.4,0-.124-1.02-.846-1.02h-4.375c-.274,0-.348,0-.448.1a2.776,2.776,0,0,0-.224,1.219.4.4,0,0,0,.1.3c.2.2.572.274.87.572a2.1,2.1,0,0,1,.322,1.417v6.638c0,.846-.074,1.393-.322,1.642a11.175,11.175,0,0,1-1.119.721.473.473,0,0,0-.075.324,3.468,3.468,0,0,0,.175,1.367.7.7,0,0,0,.5.124h6.266c.3,0,.4-.05.471-.124a2.892,2.892,0,0,0,.226-1.367.467.467,0,0,0-.076-.324,13.178,13.178,0,0,1-1.118-.721,2.46,2.46,0,0,1-.372-1.642v-4.9c0-2.014,1.117-2.635,1.939-2.635.845,0,1.318.621,1.318,1.938v6.889c0,1.84,1.169,3.057,3.282,3.057a3.3,3.3,0,0,0,3.331-2.038c0-.3-.472-.9-.77-.9-.349,0-.846.448-1.095.448-.174,0-.273-.124-.273-.522v-7.733Zm46.072,8.7c.721-.721.894-1.144.894-1.492a1.258,1.258,0,0,0-.4-.969,1.1,1.1,0,0,0-.846-.373.862.862,0,0,0-.721.324,5.7,5.7,0,0,1-4.177,1.69c-1.715,0-2.785-1.143-2.785-1.865,0-.2.174-.372.621-.5,4.774-1.492,6.763-2.486,7.509-3.232a1.777,1.777,0,0,0,.6-1.293c0-1.89-2.735-5.246-6.936-5.246a6.859,6.859,0,0,0-4.825,2.013,7.749,7.749,0,0,0-2.138,5.719,7.24,7.24,0,0,0,2.113,5.47,7.518,7.518,0,0,0,5.395,2.014,7.962,7.962,0,0,0,5.695-2.263m-3.7-7.683c0,.92-.4,1.194-1.89,1.715a9.657,9.657,0,0,1-2.388.647c-.5,0-.721-.373-.721-1.144,0-1.84.523-4.077,2.463-4.077,1.789,0,2.536,1.94,2.536,2.859m-26.853,7.683c.721-.721.9-1.144.9-1.492a1.259,1.259,0,0,0-.4-.969,1.1,1.1,0,0,0-.845-.373.86.86,0,0,0-.721.324,5.7,5.7,0,0,1-4.178,1.69c-1.715,0-2.785-1.143-2.785-1.865,0-.2.174-.372.622-.5,4.774-1.492,6.763-2.486,7.508-3.232a1.775,1.775,0,0,0,.6-1.293c0-1.89-2.735-5.246-6.937-5.246a6.856,6.856,0,0,0-4.823,2.013,7.745,7.745,0,0,0-2.138,5.719,7.243,7.243,0,0,0,2.112,5.47,7.522,7.522,0,0,0,5.4,2.014,7.96,7.96,0,0,0,5.693-2.263m-3.7-7.683c0,.92-.4,1.194-1.89,1.715a9.673,9.673,0,0,1-2.387.647c-.5,0-.721-.373-.721-1.144,0-1.84.522-4.077,2.461-4.077,1.79,0,2.537,1.94,2.537,2.859m49.775-1.02c0-2.785-1.441-4.2-3.7-4.2a6.5,6.5,0,0,0-3.357,1.045c-.4.249-.524.323-.621.323-.4,0-.125-1.02-.846-1.02H511.7c-.274,0-.349,0-.448.1a2.776,2.776,0,0,0-.224,1.219.4.4,0,0,0,.1.3c.2.2.573.274.871.572a2.108,2.108,0,0,1,.323,1.417v6.638c0,.846-.075,1.393-.323,1.642a11.356,11.356,0,0,1-1.119.721.468.468,0,0,0-.075.324,3.538,3.538,0,0,0,.173,1.367.713.713,0,0,0,.5.124h6.265c.3,0,.4-.05.474-.124a2.913,2.913,0,0,0,.223-1.367.469.469,0,0,0-.074-.324,13.023,13.023,0,0,1-1.119-.721,2.458,2.458,0,0,1-.374-1.642v-4.9c0-2.014,1.12-2.635,1.941-2.635.846,0,1.318.621,1.318,1.938v6.889c0,1.84,1.169,3.057,3.282,3.057a3.3,3.3,0,0,0,3.332-2.038c0-.3-.473-.9-.771-.9-.348,0-.845.448-1.094.448-.174,0-.275-.124-.275-.522v-7.733Zm-39.036-9.224h-4.773c-.3,0-.423,0-.5.125a3.165,3.165,0,0,0-.175,1.168.725.725,0,0,0,.075.347c.174.175.846.348,1.144.647.248.249.373.746.373,2.634v9.946c0,1.667-.174,2.189-.373,2.387a11.175,11.175,0,0,1-1.119.721.474.474,0,0,0-.074.324,3.5,3.5,0,0,0,.174,1.367c.075.074.174.124.5.124h6.241c.323,0,.422-.05.5-.124a3.192,3.192,0,0,0,.224-1.367c0-.175-.024-.273-.1-.324a9.052,9.052,0,0,1-1.095-.721c-.272-.249-.372-.8-.372-1.642v-.571c0-.323.1-.423.647-.97a1.251,1.251,0,0,1,.646-.4c.249,0,.447.174,3.182,5.693.174.348.248.423.7.423h4.052c.3,0,.4-.05.474-.124a3.334,3.334,0,0,0,.2-1.367.463.463,0,0,0-.075-.324c-.174-.174-1.217-.3-1.441-.721-3.6-6.091-3.7-6.291-3.7-6.663,0-.323,1.592-1.914,2.909-2.958.846-.671,1.392-.225,1.392-1.02,0-.92-.123-1.244-.3-1.244h-6.016c-.523,0-.572.3-.572,1.418,0,.372,1.044.423,1.044.944a9.365,9.365,0,0,1-2.958,2.885c-.15,0-.175-.1-.175-.523v-9.4a.655.655,0,0,0-.647-.7" transform="translate(-374.766 -442.815)"/>
      <path id="path3239" d="M280.281,370.232l3.3,10.038,10.567.037-8.527,6.241,3.23,10.061-8.571-6.181-8.571,6.181,3.23-10.061-8.527-6.241,10.567-.037Z" transform="translate(-266.413 -370.027)"/>
      <path id="path4083" d="M570.278,446.365a2.473,2.473,0,0,1,1.2.315,2.244,2.244,0,0,1,.9.9,2.436,2.436,0,0,1,.006,2.441,2.3,2.3,0,0,1-.9.9,2.454,2.454,0,0,1-2.428,0,2.326,2.326,0,0,1-.9-.9,2.456,2.456,0,0,1,.006-2.441,2.264,2.264,0,0,1,.907-.9,2.473,2.473,0,0,1,1.2-.315m0,.477a1.989,1.989,0,0,0-.964.251,1.837,1.837,0,0,0-.729.722,1.978,1.978,0,0,0-.006,1.964,1.863,1.863,0,0,0,.726.726,1.947,1.947,0,0,0,1.948,0,1.864,1.864,0,0,0,.726-.726,1.957,1.957,0,0,0-.006-1.964,1.809,1.809,0,0,0-.729-.722,1.989,1.989,0,0,0-.964-.251m-1.1,3.265V447.52h.525q.738,0,.827.007a.989.989,0,0,1,.4.1.62.62,0,0,1,.242.248.708.708,0,0,1,.1.369.685.685,0,0,1-.185.481.831.831,0,0,1-.512.245.621.621,0,0,1,.181.1,1.21,1.21,0,0,1,.175.2q.029.038.191.315l.306.522h-.649l-.216-.42a1.723,1.723,0,0,0-.363-.531.573.573,0,0,0-.363-.111H569.7v1.063h-.525m.525-1.47h.213a2.567,2.567,0,0,0,.563-.035.327.327,0,0,0,.239-.321.3.3,0,0,0-.064-.191.32.32,0,0,0-.175-.121,2.41,2.41,0,0,0-.563-.038H569.7v.706" transform="translate(-420.428 -442.784)"/>
    </g>
  </g>
</svg>
