<?xml version="1.0" encoding="UTF-8"?><svg id="Calque_2" xmlns="http://www.w3.org/2000/svg" viewBox="0 0 2426.47 1059.09"><defs><style>.cls-1{fill-rule:evenodd;}</style></defs><g id="Calque_1-2"><g><g><path d="M0,0L232.37,1018.19c233.29-134.6,713.89-181.8,981.16,.65,267.35-182.06,747.43-135.17,980.58-.65L2426.47,0H0ZM569.29,630.55H301.42V247.88h128.12v292.83h139.76v89.84Zm217.13-61.76c33.24,0,65.65-14.11,65.65-46.51h127.97c-4.98,40.7-8.31,126.26-189.46,126.26-169.51,0-205.25-60.65-205.25-206.83,0-177.75,83.1-200.18,200.27-200.18,176.17-.83,184.48,74.76,193.6,161.12,.87,8.26,2.49,62.29,.83,76.42h-264.25c0,98.03,60.66,89.71,70.63,89.71Zm503.19,61.14h-149.4l-162.65-381.43h142.73l96.27,257.05,92.95-257.05h141.07l-160.98,381.43Zm324.57,.36h-127.97V248.14h127.97v382.15Zm98.23-305.97c2.5-5.64,10.18-17.46,8.94-25.39-6.57,2.52-13.56,3.8-20.6,3.79-29.21,0-52.86-21.57-52.86-48.17s23.66-48.17,52.86-48.17c29.25-.01,52.9,21.56,52.9,48.16,.3,29.08-2.18,48.18-41.24,69.79Zm420.43,176.19c-1.67,82.88-53.1,134.25-182.48,134.25s-190.8-44.75-190.8-117.66h132.73c.8,25.68,14.92,44.75,56.39,44.75s63.05-18.18,63.05-46.41c0-21.56-19.08-33.15-39.82-34.81-13.63-1.09-100.36-1.66-141.84-19.9-36.99-16.25-79.36-41.3-72.16-104.42,8.29-72.9,61.37-114.34,195.77-114.34h0c104.52,0,170.89,38.95,179.16,123.47h-132.71c0-18.22-13.27-52.2-51.45-52.2s-58.9,12.43-58.9,40.6c0,29.83,17.43,37.29,30.7,40.61,6.64,1.66,86.27,13.26,112.8,16.58,19.75,2.46,101.2,6.63,99.56,89.49Z"/><path d="M785.6,317.77c-45.73,0-67.35,29.1-67.35,80.65h137.21c.83-52.39-19.13-80.65-69.86-80.65Z"/></g><path class="cls-1" d="M2103.36,1058.73c-.13-.23-.21-.71-.26-1.43s-.08-1.4-.08-2.05v-2.01c-.04-1.54-.56-3.03-1.49-4.27-1.12-1.53-2.84-2.51-4.73-2.7,1.41-.17,2.76-.62,3.98-1.34,1.8-1.15,2.71-2.97,2.71-5.42,0-3.46-1.41-5.78-4.25-6.98-1.6-.65-4.1-.99-7.52-.99h-9.62v27.52h4.84v-10.86h3.83c2.58,0,4.38,.3,5.4,.88,1.75,1.02,2.61,3.13,2.61,6.32v2.18l.1,.88,.05,.3c.02,.09,.05,.18,.08,.27h4.54l-.17-.32h0Zm-7.44-14.51c-1.48,.48-3.04,.69-4.6,.62h-4.38v-9.97h4.12c2.68,0,4.63,.34,5.88,1.02,1.22,.69,1.83,2.02,1.83,4.03-.01,2.11-.97,3.55-2.84,4.29h0Z"/></g></g></svg>