<svg xmlns="http://www.w3.org/2000/svg" width="210" height="79" viewBox="0 0 210 79">
  <g id="Groupe_309" data-name="Groupe 309" transform="translate(-1019 -4471)">
    <rect id="Rectangle_216" data-name="Rectangle 216" width="210" height="79" transform="translate(1019 4471)" fill="none"/>
    <path id="Soustraction_3" data-name="Soustraction 3" d="M-1711.466-4388.217a35.336,35.336,0,0,1-6.627-.657,47.815,47.815,0,0,1-22.488-7.076,32.061,32.061,0,0,1-7.4-6.475,22.506,22.506,0,0,1-4.219-7.6,14.291,14.291,0,0,1-.8-4.7,14.345,14.345,0,0,1,3.394-9.28,19.532,19.532,0,0,1,3.13-8.435,18.073,18.073,0,0,1,7.573-6.336,44.717,44.717,0,0,1,9.224-2.867,67.281,67.281,0,0,1,13.6-1.354c1.655,0,3.333.059,4.99.174,1.484.1,2.953.245,4.368.416a59.241,59.241,0,0,1,17.965,4.853c6.008.875,11.022,2.717,14.5,5.324,3.38,2.534,5.191,5.687,5.239,9.117a21.6,21.6,0,0,1-2.522,10.527,43.139,43.139,0,0,1-7.118,9.44c-5.383,5.737-13.792,10.554-22.492,12.885A24.982,24.982,0,0,1-1711.466-4388.217Zm-22.669-38.157a.523.523,0,0,0-.318.108,12.551,12.551,0,0,0-3.05,2.326,4.909,4.909,0,0,0-1.659,3.98c1.294,9.372,2.583,17.433,5.256,21.157a3.139,3.139,0,0,0,2.424,1.14,3.159,3.159,0,0,0,1.436-.348c2.446-1.149,4.712-4.367,6.733-9.563a72.4,72.4,0,0,0,3.082-10.586c.071-.348.193-.956.35-1.734l.073-.361,0-.023c.755-3.745,2.16-10.717,2.609-12.677a.6.6,0,0,0-.1-.47.351.351,0,0,0-.288-.132.626.626,0,0,0-.149.02,10.691,10.691,0,0,0-4.083,2.077,6,6,0,0,0-2.182,3.017c-.471,2.047-1.076,5.575-1.716,9.311-1.224,7.138-2.61,15.224-3.744,17.333a1.718,1.718,0,0,1-1.2.914c-.292,0-.669-.213-.807-1.227-.252-1.843-1.977-21.362-2.16-23.729a.521.521,0,0,0-.284-.475A.514.514,0,0,0-1734.135-4426.374Zm21.281,6.641a2,2,0,0,0-.531.118c-.209.065-.423.129-.625.188-1.85.549-3.6,1.067-4.072,3.365-.4,1.931-1.1,5.5-1.558,7.883-.573,3-.645,4.942-.226,6.12a2.321,2.321,0,0,0,2.38,1.662,6.247,6.247,0,0,0,2.525-.659,15.45,15.45,0,0,0,5.149-4.646,4.919,4.919,0,0,0,2.027,2.406,5.736,5.736,0,0,0,2.558.574,9.283,9.283,0,0,0,3.294-.681,18.283,18.283,0,0,0,6.818-5.446,4.857,4.857,0,0,0,4.866,3.412,9.141,9.141,0,0,0,6.5-3.447,15.833,15.833,0,0,0,3.778-8.762c.31-2.855-.187-5.1-1.437-6.5a4.255,4.255,0,0,0-3.26-1.413,9.554,9.554,0,0,0-7.469,3.867,16.638,16.638,0,0,0-3.351,8.339,13.7,13.7,0,0,0-.089,1.422,12.57,12.57,0,0,1-5.24,5.109,3.82,3.82,0,0,1-1.626.384c-.948,0-2.561-.438-2.711-3.371a17.778,17.778,0,0,1,1.729-8.1c.863-1.9,1.965-2.944,3.1-2.946a1.274,1.274,0,0,1,1.012.506,2.5,2.5,0,0,1,.284,2.146.942.942,0,0,0,.129.827.916.916,0,0,0,.733.319,1.276,1.276,0,0,0,.974-.459,3.634,3.634,0,0,0,.7-3.51,3.023,3.023,0,0,0-2.215-1.995,4.437,4.437,0,0,0-.921-.089,7.892,7.892,0,0,0-3.814,1.084,12.63,12.63,0,0,0-4.418,4.429,15.405,15.405,0,0,0-2.7,8.466c-.069.928-1.9,3.838-3,4.259a1.577,1.577,0,0,1-.562.12.714.714,0,0,1-.577-.252,2.828,2.828,0,0,1-.161-2.156c.593-3.357,1.247-7.017,2.177-12.2.031-.174.025-.271-.021-.326A.2.2,0,0,0-1712.854-4419.732Zm1.5-8.2a1.7,1.7,0,0,0-.334.058c-2.176.506-3.509,1.226-4.323,2.334-.753,1.026-1.093,2.417-1.136,4.651,0,.155,0,.237.045.279a.173.173,0,0,0,.129.038,2.826,2.826,0,0,0,.365-.044l.033,0a6.964,6.964,0,0,0,4-1.611c1.046-1.059,1.5-2.717,1.438-5.219C-1711.159-4427.827-1711.188-4427.936-1711.358-4427.936Zm22.677,19.022a1.391,1.391,0,0,1-1.011-.521c-.465-.52-1.193-1.862-.843-5a20.1,20.1,0,0,1,1.522-6.018c.766-1.64,1.68-2.507,2.641-2.507a1.4,1.4,0,0,1,1.08.468c.686.759.9,2.449.642,5.024a19.739,19.739,0,0,1-1.505,6.131C-1686.889-4409.775-1687.786-4408.913-1688.681-4408.913Z" transform="translate(2835 8926)"/>
  </g>
</svg>
