<svg xmlns="http://www.w3.org/2000/svg" width="1920" height="136.867" viewBox="0 0 1920 136.867">
  <path id="wave_2_" data-name="wave (2)" d="M0,41.635l8.267-4.924c8.133-4.74,25.067-14.863,41.067-2.439C65.6,46.7,82.667,80.75,98.667,95.613c16.267,14.587,32,9.986,49.333,2.485,16.133-7.225,32-17.348,49.333-27.012,16-9.664,32-19.787,49.333-14.725,15.867,5.062,32,24.389,49.333,19.649,15.733-4.924,32-34.375,48-46.661,17.067-12.1,33.333-7.5,49.333,9.848,16.933,17.164,33.333,46.615,49.333,68.7C459.467,129.988,476,144.713,492,139.79c16.667-4.74,33.333-29.589,49.333-31.89,16.667-2.3,33.333,17.026,49.333,9.8C607.2,110.2,624,76.148,640,61.285c16.4-14.587,33.333-9.986,49.333,0,16.267,9.8,33.333,24.527,49.333,31.89,16.267,7.363,32,7.363,49.333,12.287,16.133,4.74,32,14.863,49.333,22.088,16,7.5,32,12.1,49.333-2.485,15.867-14.863,32-48.916,49.333-51.539,15.733-2.439,32,27.012,48,39.3,17.067,12.1,33.333,7.5,49.333-9.848,16.933-17.164,33.333-46.615,49.333-58.9,16.8-12.1,33.333-7.5,49.333,7.363,16.667,14.587,33.333,39.436,49.333,39.3,16.667.138,33.333-24.711,49.333-39.3C1247.2,36.574,1264,31.972,1280,49c16.4,17.026,33.333,56.6,49.333,73.627,16.267,17.026,33.333,12.425,49.333,14.725,16.267,2.3,32,12.425,49.333,4.924,16.133-7.225,32-32.074,49.333-49.1,16-17.026,32-27.15,49.333-27.012,15.867-.138,32,9.986,49.333,22.088,15.733,12.287,32,27.012,48,31.936,17.067,4.74,33.333.138,49.333,0,16.933.138,33.333,4.74,49.333,0,16.8-4.924,33.333-19.649,49.333-17.21,16.667,2.623,33.333,21.95,49.333,19.649,16.667-2.3,33.333-27.15,49.333-31.89C1887.2,85.812,1904,100.537,1912,107.9l8,7.363v44.176H0Z" transform="translate(0 -22.571)" fill="#fff"/>
</svg>
