<svg xmlns="http://www.w3.org/2000/svg" width="440" height="382" viewBox="0 0 440 382">
  <g id="Groupe_413" data-name="Groupe 413" transform="translate(-1447 -6329)">
    <g id="Groupe_411" data-name="Groupe 411" transform="translate(-5 6)">
      <rect id="Rectangle_377" data-name="Rectangle 377" width="440" height="382" transform="translate(1452 6323)" fill="#fff"/>
    </g>
    <text id="SERVICE_DE_SOINS" data-name="SERVICE DE SOINS" transform="translate(1532.672 6371.059)" font-size="11" font-family="Paralucent-Medium, Paralucent" font-weight="500"><tspan x="0" y="0">SERVICE DE SOINS</tspan></text>
    <text id="BOUTIQUES" transform="translate(1532.672 6430.441)" font-size="11" font-family="Paralucent-Medium, Paralucent" font-weight="500"><tspan x="0" y="0">BOUTIQUES</tspan></text>
    <text id="RESTAURATIONS" transform="translate(1529.849 6489.824)" font-size="11" font-family="Paralucent-Medium, Paralucent" font-weight="500"><tspan x="0" y="0">RE</tspan><tspan y="0" letter-spacing="-0.029em">S</tspan><tspan y="0" letter-spacing="-0.075em">T</tspan><tspan y="0">AUR</tspan><tspan y="0" letter-spacing="-0.068em">A</tspan><tspan y="0">TIONS</tspan></text>
    <text id="MAINSTAGE" transform="translate(1735.357 6660.449)" font-size="11" font-family="Paralucent-Medium, Paralucent" font-weight="500"><tspan x="0" y="0">MAIN</tspan><tspan y="0" letter-spacing="-0.03em">S</tspan><tspan y="0" letter-spacing="-0.075em">T</tspan><tspan y="0" letter-spacing="-0.026em">A</tspan><tspan y="0">GE</tspan></text>
    <text id="SPRING_STAGE" data-name="SPRING STAGE" transform="translate(1738.406 6371.346)" font-size="11" font-family="Paralucent-Medium, Paralucent" font-weight="500"><tspan x="0" y="0">SPRING </tspan><tspan y="0" letter-spacing="-0.029em">S</tspan><tspan y="0" letter-spacing="-0.075em">T</tspan><tspan y="0" letter-spacing="-0.026em">A</tspan><tspan y="0">GE</tspan></text>
    <text id="ENTRÉE_VISITEURS" data-name="ENTRÉE VISITEURS" transform="translate(1738.431 6429.229)" font-size="11" font-family="Paralucent-Medium, Paralucent" font-weight="500"><tspan x="0" y="0">ENTRÉE VISITEU</tspan><tspan y="0" letter-spacing="-0.018em">R</tspan><tspan y="0">S</tspan></text>
    <text id="DISTRIBUTEURS" transform="translate(1529.836 6608.614)" font-size="11" font-family="Paralucent-Medium, Paralucent" font-weight="500"><tspan x="0" y="0">DI</tspan><tspan y="0" letter-spacing="-0.029em">S</tspan><tspan y="0">TRIBUTEU</tspan><tspan y="0" letter-spacing="-0.018em">R</tspan><tspan y="0">S</tspan></text>
    <text id="BAR" transform="translate(1527.375 6549.231)" font-size="11" font-family="Paralucent-Medium, Paralucent" font-weight="500"><tspan x="0" y="0" letter-spacing="-0.012em">B</tspan><tspan y="0">AR</tspan></text>
    <text id="TOILETTES" transform="translate(1528.161 6665.009)" font-size="11" font-family="Paralucent-Medium, Paralucent" font-weight="500"><tspan x="0" y="0" letter-spacing="-0.047em">T</tspan><tspan y="0">OILETTES</tspan></text>
    <text id="WELCOME_CENTER" data-name="WELCOME CENTER" transform="translate(1738.443 6488.549)" font-size="11" font-family="Paralucent-Medium, Paralucent" font-weight="500"><tspan x="0" y="0">WE</tspan><tspan y="0" letter-spacing="-0.039em">L</tspan><tspan y="0" letter-spacing="-0.01em">C</tspan><tspan y="0">OME CENTER</tspan></text>
    <text id="CASIER_" data-name="CASIER " transform="translate(1738.443 6547.895)" font-size="11" font-family="Paralucent-Medium, Paralucent" font-weight="500"><tspan x="0" y="0">C</tspan><tspan y="0" letter-spacing="-0.003em">A</tspan><tspan y="0">SIER </tspan></text>
    <text id="MYLOCK_" data-name="MYLOCK ™" transform="translate(1782.846 6547.895)" font-size="11" font-family="Paralucent-DemiBold, Paralucent" font-weight="300"><tspan x="0" y="0">MY</tspan><tspan y="0" letter-spacing="-0.039em">L</tspan><tspan y="0">OCK ™</tspan></text>
    <g id="Groupe_251" data-name="Groupe 251" transform="translate(1453 6325.832)">
      <g id="Groupe_412" data-name="Groupe 412">
        <path id="Tracé_850" data-name="Tracé 850" d="M69.049,49.067A15.337,15.337,0,1,1,53.712,33.73,15.338,15.338,0,0,1,69.049,49.067" transform="translate(-6.335 -5.569)" fill="#ff0a50"/>
        <path id="Tracé_851" data-name="Tracé 851" d="M55.368,45.423c3.864-3.972,13.524,2.978,0,11.915-13.524-8.936-3.864-15.887,0-11.915" transform="translate(-7.991 -7.31)" fill="#fff" fill-rule="evenodd"/>
        <path id="Tracé_852" data-name="Tracé 852" d="M69.049,191.33a15.337,15.337,0,1,1-15.337-15.337A15.338,15.338,0,0,1,69.049,191.33" transform="translate(-6.335 -29.055)" fill="#f644ad"/>
        <path id="Tracé_853" data-name="Tracé 853" d="M48.32,196.445q7.265-.013,14.527,0a.527.527,0,0,1,.524.524,2.09,2.09,0,0,1-2.1,2.314H49.893a2.09,2.09,0,0,1-2.1-2.314.528.528,0,0,1,.525-.524m10.845-9.083a.807.807,0,1,1-.807.807.807.807,0,0,1,.807-.807m-7.037.057a.808.808,0,1,1-.807.807.807.807,0,0,1,.807-.807m3.49-.769a.807.807,0,1,1-.807.807.807.807,0,0,1,.807-.807m6.542,4.739H49.174a1.5,1.5,0,0,1-1.5-1.5c0-2.137,4.258-4.256,7.833-4.291,7.036-.07,10.193,5.792,6.654,5.792m1.176,2.282a.24.24,0,0,1,.033.121c0,.027,0,.057,0,.087s0,.059,0,.087a.237.237,0,0,1-.033.12c-.119.521-.6,1.2-2.064,1.2H49.893c-1.468,0-1.944-.68-2.063-1.2a.23.23,0,0,1-.034-.12c0-.028,0-.058,0-.087s0-.06,0-.087a.233.233,0,0,1,.034-.121c.119-.519.6-1.2,2.063-1.2h5.892l2.172,2.243,2.158-2.243h1.156c1.469,0,1.945.682,2.064,1.2" transform="translate(-7.871 -30.641)" fill="#fff" fill-rule="evenodd"/>
        <path id="Tracé_854" data-name="Tracé 854" d="M69.049,262.462a15.337,15.337,0,1,1-15.337-15.337,15.338,15.338,0,0,1,15.337,15.337" transform="translate(-6.335 -40.799)" fill="#f49937"/>
        <path id="Tracé_855" data-name="Tracé 855" d="M52.045,263.5c2.737,2.107,3.714,1.277,5.281.5,1.2-.59,1.671-1.152,3.13-.561V261.3H52.046v2.2ZM48.558,257.7a4.356,4.356,0,0,1,6.158,0c.037.037.074.075.109.114l.114.089-2.616,2.617h5.1l.59-1.99a.506.506,0,0,1,.269-.334l2.5-1.4a.507.507,0,0,1,.494.886l-2.323,1.3-.487,1.54h2.395a.323.323,0,0,1,.323.321v4.1c0,2.666-1.458,4.735-4.177,4.938v3.75h2.117c.179,0,.321.283.321.46s-.147.461-.321.461H53.793c-.179,0-.321-.284-.321-.461s.147-.46.321-.46h1.85V269.9c-2.8-.115-4.369-2.213-4.369-4.95v-3.38l-2.5,2.5-.044-.058c-.056-.052-.113-.1-.167-.158a4.358,4.358,0,0,1,0-6.159Zm5.475.162a3.774,3.774,0,0,0-5.312,5.312L49,262.9a3.393,3.393,0,0,1,4.759-4.76Zm-4.625,4.625,1.416-1.419h-1.98a2.8,2.8,0,0,0,.564,1.419m2.518-2.521,1.419-1.419a2.8,2.8,0,0,0-1.419-.564Zm-3.082.523h2.093l-1.475-1.475a2.808,2.808,0,0,0-.614,1.475Zm2.508-.41V257.99a2.8,2.8,0,0,0-1.475.614l1.475,1.475Z" transform="translate(-7.807 -42.335)" fill="#fff"/>
        <path id="Tracé_856" data-name="Tracé 856" d="M69.049,333.594a15.337,15.337,0,1,1-15.337-15.337,15.338,15.338,0,0,1,15.337,15.337" transform="translate(-6.335 -52.542)" fill="#03aa7e"/>
        <path id="Tracé_857" data-name="Tracé 857" d="M60.649,330.61v11.452h-9V330.61H48.39a.76.76,0,0,0-.705.592,1.845,1.845,0,0,0,0,1.081.76.76,0,0,0,.705.592h1.236a.8.8,0,1,1,0,1.61H48.39a2.29,2.29,0,0,1-2.228-1.7,3.316,3.316,0,0,1,0-2.088A2.29,2.29,0,0,1,48.39,329H63.905a2.29,2.29,0,0,1,2.228,1.7,3.321,3.321,0,0,1,0,2.09,2.29,2.29,0,0,1-2.228,1.7H62.35a.8.8,0,0,1,0-1.61h1.555a.761.761,0,0,0,.706-.592,1.845,1.845,0,0,0,0-1.081.761.761,0,0,0-.706-.592H60.649Zm-7.588,0v8.542a1.332,1.332,0,0,1,1.329,1.331h3.558a1.333,1.333,0,0,1,1.329-1.331V330.61Zm3.143,1.216a1.517,1.517,0,1,1-1.517,1.518,1.516,1.516,0,0,1,1.517-1.518m2.592,1.582a2.65,2.65,0,1,1-2.649-2.649,2.646,2.646,0,0,1,2.649,2.649" transform="translate(-7.593 -54.316)" fill="#fff" fill-rule="evenodd"/>
        <path id="Tracé_858" data-name="Tracé 858" d="M69.049,404.726a15.337,15.337,0,1,1-15.337-15.337,15.338,15.338,0,0,1,15.337,15.337" transform="translate(-6.335 -64.286)" fill="#867ca0"/>
        <path id="Tracé_859" data-name="Tracé 859" d="M51.684,403.914v8.518a.622.622,0,1,1-1.245,0v-5.009h-.245v5.009a.622.622,0,1,1-1.245,0v-8.518h-.216v3.13a.473.473,0,0,1-.945,0v-3.366a1.384,1.384,0,0,1,.519-1.185,6.3,6.3,0,0,1,4,0,1.388,1.388,0,0,1,.521,1.185v3.366a.47.47,0,1,1-.94,0v-3.13Zm2.964-4.239a.361.361,0,0,1,.721,0v13.379a.361.361,0,0,1-.721,0Zm7.885,3.875a.621.621,0,0,1,.02.059l.974,3.462a.484.484,0,1,1-.933.256l-.958-3.416h-.218v.216l1.282,5.1H61.417v3.205a.622.622,0,1,1-1.244,0v-3.205h-.246v3.205a.621.621,0,1,1-1.242,0v-3.205H57.324L58.685,404v-.082H58.45l-.964,3.413a.483.483,0,1,1-.932-.256l.953-3.392H57.5a1.987,1.987,0,0,1,.6-1.185,6.118,6.118,0,0,1,3.942,0c.311.23.362.544.49,1.056m-2.491-3.875a1.126,1.126,0,1,1-1.126,1.125,1.126,1.126,0,0,1,1.126-1.125m-9.733,0a1.126,1.126,0,1,1-1.125,1.125,1.125,1.125,0,0,1,1.125-1.125" transform="translate(-7.889 -65.924)" fill="#fff" fill-rule="evenodd"/>
        <path id="Tracé_860" data-name="Tracé 860" d="M318.891,189.786a15.337,15.337,0,1,1-15.337-15.337,15.338,15.338,0,0,1,15.337,15.337" transform="translate(-47.583 -28.8)" fill="#4c665e"/>
        <path id="Tracé_861" data-name="Tracé 861" d="M305.052,180.911A9.605,9.605,0,0,1,312,183.658a10.214,10.214,0,0,1,2.557,10.52,9.859,9.859,0,0,1-1.73,3.143,9.439,9.439,0,0,1-7.017,3.472,9.551,9.551,0,0,1-6.4-2.182c-.183-.149-.359-.306-.532-.467l-2.612.913a.8.8,0,0,1-.983-1.091l1.378-2.911a10.19,10.19,0,0,1-.283-7.932,9.863,9.863,0,0,1,2.172-3.38,9.5,9.5,0,0,1,2.981-2.053,9.318,9.318,0,0,1,3.517-.779m-.264,5.844a1.268,1.268,0,0,1,.092-.485,1.227,1.227,0,0,1,.277-.4,1.3,1.3,0,0,1,.4-.269,1.26,1.26,0,0,1,.936,0,1.253,1.253,0,0,1,.394.274,1.233,1.233,0,0,1,.272.4,1.284,1.284,0,0,1,.089.485,1.245,1.245,0,0,1-.089.473,1.289,1.289,0,0,1-.271.406,1.24,1.24,0,0,1-.4.278,1.182,1.182,0,0,1-.468.092,1.208,1.208,0,0,1-.485-.092,1.174,1.174,0,0,1-.4-.275,1.223,1.223,0,0,1-.361-.883Zm.472,7.313-.027.1c-.024.1-.058.244.021.333a.142.142,0,0,0,.055.035.206.206,0,0,0,.083.015.424.424,0,0,0,.221-.1,2.094,2.094,0,0,0,.324-.314,5.609,5.609,0,0,0,.392-.506q.2-.288.427-.663a.058.058,0,0,1,.078-.019l.5.373a.057.057,0,0,1,.015.076,8.838,8.838,0,0,1-.7,1.051,4.813,4.813,0,0,1-.725.75,2.787,2.787,0,0,1-.751.448,2.257,2.257,0,0,1-1.418.068,1.243,1.243,0,0,1-.464-.255,1.1,1.1,0,0,1-.285-.417,1.537,1.537,0,0,1-.09-.553,3.011,3.011,0,0,1,.116-.741q.041-.154.1-.346l.883-2.725.073-.257c.018-.071.033-.134.045-.188s.018-.092.024-.139a1.123,1.123,0,0,0,.008-.118.427.427,0,0,0-.031-.162.338.338,0,0,0-.088-.123.385.385,0,0,0-.144-.084.612.612,0,0,0-.194-.029H303a.056.056,0,0,1-.057-.057V189.5l.186-.69a.055.055,0,0,1,.053-.041l3.622-.114a.058.058,0,0,1,.058.054v.018l-1.606,5.334Zm5.631-9.266a8.016,8.016,0,0,0-5.8-2.3,7.766,7.766,0,0,0-2.91.646,7.889,7.889,0,0,0-2.491,1.709,8.261,8.261,0,0,0-1.822,2.83,8.534,8.534,0,0,0-.554,3.364,8.658,8.658,0,0,0,.271,1.874,8.524,8.524,0,0,0,.646,1.718.8.8,0,0,1,.034.746l-.726,1.535,1.261-.44a.8.8,0,0,1,.867.193,8.254,8.254,0,0,0,.756.7,7.977,7.977,0,0,0,5.334,1.823,7.932,7.932,0,0,0,5.83-2.9,8.317,8.317,0,0,0,1.455-2.635,8.628,8.628,0,0,0-2.152-8.874" transform="translate(-48.738 -29.867)" fill="#fff"/>
        <path id="Tracé_862" data-name="Tracé 862" d="M318.934,260.809A15.337,15.337,0,1,1,303.6,245.472a15.338,15.338,0,0,1,15.337,15.337" transform="translate(-47.59 -40.526)"/>
        <path id="Tracé_863" data-name="Tracé 863" d="M298.388,261.194h1.35v-2.852a5.579,5.579,0,0,1,1.644-3.952v0a5.574,5.574,0,0,1,7.9,0v0a5.579,5.579,0,0,1,1.643,3.952v2.852h1.076a.437.437,0,0,1,.436.436v9.207a.437.437,0,0,1-.436.436H298.388a.437.437,0,0,1-.437-.436V261.63a.437.437,0,0,1,.437-.436m3.525,0h6.843v-2.884a3.413,3.413,0,0,0-1-2.416h0a3.421,3.421,0,0,0-5.838,2.416v2.884Zm3.449,5.038.691,3.187-1.893.008.555-3.23a1.284,1.284,0,1,1,.647.035" transform="translate(-49.19 -41.727)" fill="#fff" fill-rule="evenodd"/>
        <path id="Tracé_864" data-name="Tracé 864" d="M69.049,120.2a15.337,15.337,0,1,1-15.337-15.337A15.338,15.338,0,0,1,69.049,120.2" transform="translate(-6.335 -17.312)" fill="#00bffc"/>
        <path id="Tracé_865" data-name="Tracé 865" d="M48.978,113.535a1.123,1.123,0,0,1,.854-.393h9.591a1.123,1.123,0,0,1,.853.393l2.931,3.419a1.686,1.686,0,0,1,.4,1.1v.286a2.667,2.667,0,0,1-4.773,1.637,2.667,2.667,0,0,1-4.211,0,2.668,2.668,0,0,1-4.212,0,2.667,2.667,0,0,1-4.773-1.637v-.286a1.682,1.682,0,0,1,.406-1.1l2.931-3.42Zm2,4.8a1.544,1.544,0,1,0,3.088,0,.561.561,0,1,1,1.123,0,1.545,1.545,0,1,0,3.089,0,.561.561,0,1,1,1.123,0,1.544,1.544,0,1,0,3.088,0v-.286a.562.562,0,0,0-.134-.365l-2.931-3.42H49.833l-2.931,3.42a.559.559,0,0,0-.135.365v.286a1.545,1.545,0,1,0,3.089,0,.561.561,0,1,1,1.123,0m-3.65,3.229a.562.562,0,0,1,.561.562v6.739h1.124V123.25a1.123,1.123,0,0,1,1.123-1.123H53.5a1.123,1.123,0,0,1,1.124,1.123v5.616h6.739v-6.739a.561.561,0,1,1,1.123,0v6.739h.562a.561.561,0,0,1,0,1.123H46.2a.561.561,0,1,1,0-1.123h.561v-6.739a.562.562,0,0,1,.562-.562m2.808,7.3h3.37V123.25h-3.37Zm5.616-5.616a1.123,1.123,0,0,1,1.123-1.123H59.12a1.123,1.123,0,0,1,1.124,1.123v3.37a1.123,1.123,0,0,1-1.124,1.123H56.874a1.123,1.123,0,0,1-1.123-1.123Zm3.369,0H56.874v3.37H59.12Z" transform="translate(-7.535 -18.679)" fill="#fff"/>
        <path id="Tracé_866" data-name="Tracé 866" d="M316.4,399.282a15.337,15.337,0,1,1-15.337-15.337A15.338,15.338,0,0,1,316.4,399.282" transform="translate(-47.171 -63.387)" fill="#560cca"/>
        <path id="Tracé_867" data-name="Tracé 867" d="M293.1,401.845h0a.271.271,0,0,1,.271-.271H304.78a.271.271,0,1,1,0,.543H293.374a.271.271,0,0,1-.271-.271" transform="translate(-48.389 -66.297)" fill="#fff"/>
        <path id="Tracé_868" data-name="Tracé 868" d="M306.6,401.845h0a.271.271,0,0,1,.271-.271H314.2a.271.271,0,0,1,0,.543h-7.332a.271.271,0,0,1-.271-.271" transform="translate(-50.618 -66.297)" fill="#fff"/>
        <path id="Tracé_869" data-name="Tracé 869" d="M304.515,390.434h0a.271.271,0,0,1,.271.271v11.609a.271.271,0,1,1-.543,0V390.705a.271.271,0,0,1,.271-.271" transform="translate(-50.229 -64.458)" fill="#fff"/>
        <path id="Tracé_870" data-name="Tracé 870" d="M304.514,403.932h0a.271.271,0,0,1,.271.271v7.332a.271.271,0,0,1-.543,0V404.2a.271.271,0,0,1,.271-.271" transform="translate(-50.229 -66.687)" fill="#fff"/>
        <path id="Tracé_871" data-name="Tracé 871" d="M296.377,393.845h0a.272.272,0,0,1,.384,0l8.188,8.049a.272.272,0,0,1-.381.387l-8.188-8.049a.272.272,0,0,1,0-.384" transform="translate(-48.917 -65.008)" fill="#fff"/>
        <path id="Tracé_872" data-name="Tracé 872" d="M306,403.308h0a.272.272,0,0,1,.384,0l5.228,5.14a.272.272,0,1,1-.381.387l-5.228-5.14a.272.272,0,0,1,0-.384" transform="translate(-50.506 -66.57)" fill="#fff"/>
        <path id="Tracé_873" data-name="Tracé 873" d="M310.636,393.535h0a.272.272,0,0,1,.012.384l-8.657,9.2a.272.272,0,0,1-.4-.372l8.657-9.2a.272.272,0,0,1,.384-.012" transform="translate(-49.779 -64.958)" fill="#fff"/>
        <path id="Tracé_874" data-name="Tracé 874" d="M302.106,403.367h0a.272.272,0,0,1,.012.384l-5.023,5.341a.272.272,0,0,1-.4-.372l5.023-5.341a.272.272,0,0,1,.384-.012" transform="translate(-48.971 -66.581)" fill="#fff"/>
        <path id="Tracé_875" data-name="Tracé 875" d="M300.237,400.534l-3.052-1.142a.271.271,0,1,1,.19-.508l3.052,1.142a.271.271,0,1,1-.19.508" transform="translate(-49.034 -65.85)" fill="#fff"/>
        <path id="Tracé_876" data-name="Tracé 876" d="M293.986,398.2h0a.271.271,0,1,1,.35-.16.272.272,0,0,1-.35.16" transform="translate(-48.506 -65.653)" fill="#fff"/>
        <path id="Tracé_877" data-name="Tracé 877" d="M308,403.439l3.052,1.142a.271.271,0,1,0,.19-.508l-3.052-1.142a.271.271,0,1,0-.19.508" transform="translate(-50.819 -66.518)" fill="#fff"/>
        <path id="Tracé_878" data-name="Tracé 878" d="M314.853,406h0a.271.271,0,1,0-.159-.35.271.271,0,0,0,.159.35" transform="translate(-51.951 -66.942)" fill="#fff"/>
        <path id="Tracé_879" data-name="Tracé 879" d="M305.727,397.616l1.247-3.011a.272.272,0,0,1,.5.208l-1.247,3.011a.272.272,0,0,1-.5-.208" transform="translate(-50.47 -65.119)" fill="#fff"/>
        <path id="Tracé_880" data-name="Tracé 880" d="M308.528,391.45h0a.272.272,0,1,1,.147.355.271.271,0,0,1-.147-.355" transform="translate(-50.933 -64.598)" fill="#fff"/>
        <path id="Tracé_881" data-name="Tracé 881" d="M302.554,405.272l-1.247,3.011a.272.272,0,1,0,.5.208l1.247-3.011a.272.272,0,1,0-.5-.208" transform="translate(-49.74 -66.88)" fill="#fff"/>
        <path id="Tracé_882" data-name="Tracé 882" d="M300,412.033h0a.272.272,0,1,0,.355-.147.271.271,0,0,0-.355.147" transform="translate(-49.525 -67.996)" fill="#fff"/>
        <path id="Tracé_883" data-name="Tracé 883" d="M302.521,397.839l-1.272-3a.272.272,0,1,1,.5-.212l1.272,3a.272.272,0,1,1-.5.212" transform="translate(-49.731 -65.123)" fill="#fff"/>
        <path id="Tracé_884" data-name="Tracé 884" d="M299.917,391.7h0a.272.272,0,1,1,.356.144.272.272,0,0,1-.356-.144" transform="translate(-49.511 -64.604)" fill="#fff"/>
        <path id="Tracé_885" data-name="Tracé 885" d="M305.756,405.469l1.272,3a.271.271,0,1,0,.5-.211l-1.272-3a.272.272,0,0,0-.5.212" transform="translate(-50.475 -66.878)" fill="#fff"/>
        <path id="Tracé_886" data-name="Tracé 886" d="M308.613,412.207h0a.272.272,0,1,0,.144-.356.272.272,0,0,0-.144.356" transform="translate(-50.946 -67.99)" fill="#fff"/>
        <path id="Tracé_887" data-name="Tracé 887" d="M300.509,403.587l-3,1.272a.272.272,0,1,1-.212-.5l3-1.272a.272.272,0,0,1,.212.5" transform="translate(-49.054 -66.543)" fill="#fff"/>
        <path id="Tracé_888" data-name="Tracé 888" d="M294.364,406.443h0a.272.272,0,1,1,.144-.356.271.271,0,0,1-.144.356" transform="translate(-48.535 -67.015)" fill="#fff"/>
        <path id="Tracé_889" data-name="Tracé 889" d="M308.139,400.351l3-1.272a.271.271,0,1,0-.211-.5l-3,1.272a.272.272,0,0,0,.212.5" transform="translate(-50.809 -65.799)" fill="#fff"/>
        <path id="Tracé_890" data-name="Tracé 890" d="M314.877,397.747h0a.272.272,0,1,0-.356-.144.271.271,0,0,0,.356.144" transform="translate(-51.922 -65.579)" fill="#fff"/>
        <path id="Tracé_891" data-name="Tracé 891" d="M319.009,49.067A15.337,15.337,0,1,1,303.671,33.73a15.338,15.338,0,0,1,15.337,15.337" transform="translate(-47.602 -5.569)" fill="#867ca0"/>
        <path id="Tracé_892" data-name="Tracé 892" d="M304.688,49.657c-6.1-14.1-13.865-3.826-.159.21-13.707-4.036-10.936,8.777.057.261-10.992,8.516.229,14.218.229.117,0,14.1,11.221,8.4.23-.117,10.992,8.516,13.763-4.3.056-.261,13.707-4.036,5.942-14.311-.159-.21,6.1-14.1-6.354-14.1-.254,0" transform="translate(-48.746 -6.452)" fill="#fff"/>
        <path id="Tracé_893" data-name="Tracé 893" d="M308.739,51.57a2.541,2.541,0,1,1-2.538-2.678,2.611,2.611,0,0,1,2.538,2.678" transform="translate(-50.133 -8.072)" fill="#867ca0"/>
        <path id="Tracé_894" data-name="Tracé 894" d="M318.891,118.654a15.337,15.337,0,1,1-15.337-15.337,15.338,15.338,0,0,1,15.337,15.337" transform="translate(-47.583 -17.057)" fill="#8c4c20"/>
        <path id="Tracé_895" data-name="Tracé 895" d="M306.7,121.958l.811.769,1.6-1.624c.149-.15.243-.271.426-.083l.6.61c.2.193.185.306,0,.486l-2.281,2.241c-.389.381-.321.4-.716.013l-1.437-1.43a.171.171,0,0,1,.017-.267l.69-.716c.105-.11.188-.1.295,0m1.257-3.615a4.352,4.352,0,0,1,1.041.126.458.458,0,0,0-.1-.427l-3.2-3.2a.459.459,0,0,0-.629-.013l-4.789,4.791a.457.457,0,0,0,0,.641l3.187,3.187a.447.447,0,0,0,.227.122,4.356,4.356,0,0,1,4.266-5.227m1.641.321a4.3,4.3,0,0,1,1.055.616l1.191-1.191a.346.346,0,0,1-.088-.065l-.463-.463a.413.413,0,0,1-.032-.036.328.328,0,0,1,.5-.427l.463.463a.322.322,0,0,1,.031.037.4.4,0,0,1,.033.053l1.626-1.627a.242.242,0,0,0,.007-.336l-1.476-1.476a2.165,2.165,0,0,1-2.863-2.863l-1.475-1.475a.246.246,0,0,0-.343,0l-1.619,1.618a.361.361,0,0,1,.056.047l.464.463c.012.013.021.023.031.036a.328.328,0,0,1-.5.427l-.463-.463a.317.317,0,0,1-.032-.036l-.014-.022-8.316,8.317a.359.359,0,0,1,.081.062l.463.463c.012.013.021.024.031.037a.328.328,0,0,1-.494.427l-.463-.463-.032-.036a.457.457,0,0,1-.028-.046l-1.621,1.622a.249.249,0,0,0,0,.343l1.463,1.462a2.153,2.153,0,0,1,2.883,2.884l1.462,1.462a.245.245,0,0,0,.343,0l1.617-1.616a.36.36,0,0,1-.063-.052l-.463-.463-.032-.037a.328.328,0,0,1,.5-.427l.463.464a.43.43,0,0,1,.032.036l.018.028,1.014-1.014a4.533,4.533,0,0,1-.667-1.188,1.085,1.085,0,0,1-.856-.311l-3.187-3.188a1.091,1.091,0,0,1,0-1.534l4.8-4.8a1.088,1.088,0,0,1,1.512.018l3.208,3.208a1.091,1.091,0,0,1,.251,1.06m1.533,1.054a4.353,4.353,0,0,1-6.154,6.153l-3.061,3.062-.021.014a.892.892,0,0,1-1.242-.014l-1.636-1.636a.33.33,0,0,1-.038-.41,1.541,1.541,0,0,0,.2-.472,1.507,1.507,0,0,0-2.278-1.63.323.323,0,0,1-.419-.028l-1.641-1.64a.892.892,0,0,1,0-1.253L307.3,109.408a.892.892,0,0,1,1.257,0l1.648,1.647a.331.331,0,0,1,.047.4,1.511,1.511,0,0,0,1.6,2.262,1.527,1.527,0,0,0,.461-.179.333.333,0,0,1,.413.041l1.647,1.647a.892.892,0,0,1,0,1.257Zm-3.543-6.79a.328.328,0,0,0-.5.427.427.427,0,0,0,.031.036l.463.463a.328.328,0,0,0,.5-.427c-.01-.013-.019-.023-.031-.036Zm1.389,1.389a.328.328,0,0,0-.494.427c.01.013.019.024.031.037l.463.463a.328.328,0,0,0,.494-.427.246.246,0,0,0-.031-.036Zm1.39,1.39a.328.328,0,0,0-.494.427c.01.013.019.024.031.037l.463.463a.328.328,0,0,0,.5-.427c-.011-.013-.02-.024-.032-.036Zm-11.524,6a.328.328,0,0,0-.5.427.417.417,0,0,0,.032.036l.463.463a.328.328,0,0,0,.494-.427.322.322,0,0,0-.032-.037Zm1.39,1.39a.328.328,0,0,0-.5.427.413.413,0,0,0,.032.036l.463.463a.328.328,0,0,0,.494-.427.411.411,0,0,0-.031-.036Zm1.389,1.39a.328.328,0,0,0-.494.427.411.411,0,0,0,.031.036l.463.463a.328.328,0,0,0,.5-.427.428.428,0,0,0-.032-.037ZM307.956,119a3.7,3.7,0,1,1-3.7,3.7,3.7,3.7,0,0,1,3.7-3.7" transform="translate(-48.634 -18.02)" fill="#fff" fill-rule="evenodd"/>
      </g>
    </g>
    <text id="FRESH_ZONE" data-name="FRESH ZONE" transform="translate(1737.927 6608.272)" font-size="11" font-family="Paralucent-Medium, Paralucent" font-weight="500"><tspan x="0" y="0">FRESH </tspan><tspan y="0" letter-spacing="-0.052em">Z</tspan><tspan y="0">ONE</tspan></text>
    <path id="Tracé_896" data-name="Tracé 896" d="M319.1,331.831a15.337,15.337,0,1,1-15.337-15.337A15.338,15.338,0,0,1,319.1,331.831" transform="translate(1405.383 6273.581)" fill="#ce67ac"/>
    <path id="Tracé_897" data-name="Tracé 897" d="M305.09,331.427v7.3h2.6l.772-1.794h-.412a.479.479,0,1,1,0-.958h2l-.383-.792h-1.261a.3.3,0,1,1,0-.6h3.22l.316-1.844a.509.509,0,0,1,.594-.382.481.481,0,0,1,.414.529l-.63,3.637a.5.5,0,0,1-.5.4h-.6l.867,1.8h2.8V340H295.555V338.73H297.3l.867-1.794h-.609a.5.5,0,0,1-.5-.4l-.63-3.637a.488.488,0,0,1,.463-.519.508.508,0,0,1,.548.372l.316,1.843h3.229a.3.3,0,1,1,0,.6h-1.262l-.377.787h2a.493.493,0,0,1,.485.505.5.5,0,0,1-.485.453h-.419l.788,1.794h2.617v-7.3h-4.555a.272.272,0,0,1-.281-.262.141.141,0,0,1,0-.026,4.557,4.557,0,0,1,1.537-3.34,5.463,5.463,0,0,1,3.6-1.388.293.293,0,0,1,.174,0,5.459,5.459,0,0,1,3.578,1.388,4.571,4.571,0,0,1,1.53,3.366.266.266,0,0,1-.272.261H305.09Zm6.9-3.275a.112.112,0,0,1,.046-.159.127.127,0,0,1,.169.041l0,0,.158.257a.112.112,0,0,1-.045.159.131.131,0,0,1-.171-.042Zm1,.384a1.042,1.042,0,1,1-1.115,1.039,1,1,0,0,1,.326-.735,1.159,1.159,0,0,1,.788-.3m-.1-.656a.119.119,0,0,1,.111-.129.124.124,0,0,1,.139.1.142.142,0,0,1,0,.026v.294a.125.125,0,0,1-.139.1.123.123,0,0,1-.111-.1Zm.923.181a.129.129,0,0,1,.17-.043.116.116,0,0,1,.046.16l-.158.257a.132.132,0,0,1-.17.044.112.112,0,0,1-.044-.159l.158-.26Zm.7.588a.131.131,0,0,1,.17.043.112.112,0,0,1-.046.159l-.276.147a.128.128,0,0,1-.169-.039l0,0a.113.113,0,0,1,.046-.159Zm.293.837a.125.125,0,0,1,.139.1.121.121,0,0,1-.111.13h-.344a.122.122,0,0,1-.126-.118.12.12,0,0,1,.124-.116h.317Zm-.194.862a.112.112,0,0,1,.045.159.131.131,0,0,1-.17.043l-.277-.147a.112.112,0,0,1-.044-.159.128.128,0,0,1,.168-.043h0l.276.147Zm-.631.652a.116.116,0,0,1-.065.155.131.131,0,0,1-.152-.039l-.158-.258a.115.115,0,0,1,.065-.155.131.131,0,0,1,.152.039Zm-.9.274a.12.12,0,0,1-.111.13.125.125,0,0,1-.139-.1.068.068,0,0,1,0-.026v-.294a.119.119,0,0,1,.111-.13.124.124,0,0,1,.139.1.14.14,0,0,1,0,.027Zm-.924-.181a.129.129,0,0,1-.17.042.112.112,0,0,1-.045-.159l.158-.258a.13.13,0,0,1,.17-.043.112.112,0,0,1,.043.159l-.157.26Zm-.7-.588a.13.13,0,0,1-.168-.055.112.112,0,0,1,.042-.148l.276-.147a.13.13,0,0,1,.171.044.112.112,0,0,1-.046.159h0Zm-.293-.837a.118.118,0,1,1,0-.235h.316a.118.118,0,1,1,0,.235Zm.194-.86a.114.114,0,0,1-.046-.159.13.13,0,0,1,.168-.045l.276.147a.112.112,0,0,1,.046.159.129.129,0,0,1-.17.041l-.276-.147ZM298,338.73h3.009l-.788-1.794h-1.353Zm1.012-3.544h-1.156l.137.792h.631l.383-.792Zm12.377,3.544-.867-1.794h-1.359l-.788,1.794Zm-.63-2.752h.63l.137-.792h-1.15l.382.792Zm-2.776-7.806a4.73,4.73,0,0,0-1.322-.844,3.959,3.959,0,0,1,.482.872,7.551,7.551,0,0,1,.473,2.7h1.734A4.08,4.08,0,0,0,308,328.172ZM305.515,327c-.176-.028-.353-.048-.532-.058v3.968h2.064a6.987,6.987,0,0,0-.432-2.517,2.717,2.717,0,0,0-1.1-1.388Zm-1.093-.06c-.174.01-.351.028-.522.053a2.7,2.7,0,0,0-1.1,1.4,7.093,7.093,0,0,0-.429,2.51h2.057V326.93Zm-1.66.381a4.682,4.682,0,0,0-1.351.858,4.082,4.082,0,0,0-1.356,2.728H301.8a7.626,7.626,0,0,1,.463-2.693,3.757,3.757,0,0,1,.5-.893" transform="translate(1404.206 6271.946)" fill="#fff"/>
  </g>
</svg>
