<?xml version="1.0" standalone="no"?>
<!DOCTYPE svg PUBLIC "-//W3C//DTD SVG 20010904//EN"
 "http://www.w3.org/TR/2001/REC-SVG-20010904/DTD/svg10.dtd">
<svg version="1.0" xmlns="http://www.w3.org/2000/svg"
 width="134.000000pt" height="134.000000pt" viewBox="0 0 134.000000 134.000000"
 preserveAspectRatio="xMidYMid meet">
<metadata>
Created by potrace 1.14, written by Peter Selinger 2001-2017
</metadata>
<g transform="translate(0.000000,134.000000) scale(0.100000,-0.100000)"
fill="#000000" stroke="none">
<path d="M619 1317 c-15 -12 -32 -33 -40 -47 -41 -80 -45 -237 -9 -383 11 -44
19 -82 17 -83 -1 -2 -26 32 -54 74 -62 94 -136 167 -205 205 -184 99 -263 -80
-106 -243 59 -62 105 -96 201 -147 60 -31 72 -41 47 -35 -65 13 -261 6 -309
-12 -53 -19 -106 -58 -122 -89 -19 -34 -12 -87 13 -115 71 -77 230 -71 401 14
37 19 70 34 73 34 3 0 -14 -19 -36 -42 -55 -58 -109 -140 -138 -212 -46 -113
-17 -218 63 -229 46 -6 80 10 125 60 60 65 109 187 126 317 6 47 11 41 19 -21
9 -79 50 -198 87 -256 77 -121 209 -136 238 -27 26 96 -27 227 -145 358 -48
53 -43 55 29 17 159 -84 342 -89 402 -10 27 36 30 62 10 109 -28 68 -123 107
-266 112 -52 1 -115 -1 -140 -6 -58 -11 -62 -5 -14 15 73 30 180 104 233 159
94 101 117 192 60 248 -28 29 -34 30 -83 25 -33 -3 -70 -16 -96 -32 -57 -36
-140 -124 -191 -201 -23 -36 -44 -63 -46 -60 -2 2 3 30 11 62 28 112 37 241
21 316 -27 123 -110 181 -176 125z"/>
</g>
</svg>
