<svg xmlns="http://www.w3.org/2000/svg" width="106.027" height="106.025" viewBox="0 0 106.027 106.025">
  <g id="Groupe_504" data-name="Groupe 504" transform="translate(-1643.131 -1153.465)">
    <path id="Tracé_168" data-name="Tracé 168" d="M52.3,56.8c-33.536-75.073-76.227-20.37-.871,1.116-75.355-21.487-60.119,46.727.311,1.392C-8.689,104.647,53,135,53,59.932c0,75.073,61.689,44.715,1.259-.62,60.43,45.335,75.666-22.878.311-1.392C129.926,36.434,87.235-18.269,53.7,56.8c33.537-75.073-34.934-75.073-1.4,0" transform="translate(1643.145 1153.466)" fill="#ff8f00" stroke="#000" stroke-width="1"/>
    <g id="Groupe_503" data-name="Groupe 503" transform="translate(-0.496)">
      <path id="Tracé_170" data-name="Tracé 170" d="M186.72,198.813a14.4,14.4,0,1,1-14.4-14.4,14.4,14.4,0,0,1,14.4,14.4" transform="translate(1524.32 1013)" fill="#0087ff"/>
      <path id="Tracé_171" data-name="Tracé 171" d="M186.72,198.813a14.4,14.4,0,1,1-14.4-14.4A14.4,14.4,0,0,1,186.72,198.813Z" transform="translate(1524.32 1013)" fill="none" stroke="#000" stroke-miterlimit="10" stroke-width="1"/>
    </g>
  </g>
</svg>
