<svg id="google" xmlns="http://www.w3.org/2000/svg" xmlns:xlink="http://www.w3.org/1999/xlink" width="178.182" height="52.794" viewBox="0 0 178.182 52.794">
  <defs>
    <linearGradient id="linear-gradient" x1="0.908" y1="1.032" x2="-0.383" y2="0.36" gradientUnits="objectBoundingBox">
      <stop offset="0" stop-color="#00a0ff"/>
      <stop offset="0.007" stop-color="#00a1ff"/>
      <stop offset="0.26" stop-color="#00beff"/>
      <stop offset="0.512" stop-color="#00d2ff"/>
      <stop offset="0.76" stop-color="#00dfff"/>
      <stop offset="1" stop-color="#00e3ff"/>
    </linearGradient>
    <linearGradient id="linear-gradient-2" x1="1.077" y1="0.729" x2="-1.307" y2="0.729" gradientUnits="objectBoundingBox">
      <stop offset="0" stop-color="#ffe000"/>
      <stop offset="0.409" stop-color="#ffbd00"/>
      <stop offset="0.775" stop-color="orange"/>
      <stop offset="1" stop-color="#ff9c00"/>
    </linearGradient>
    <linearGradient id="linear-gradient-3" x1="0.864" y1="-0.023" x2="-0.499" y2="-1.789" gradientUnits="objectBoundingBox">
      <stop offset="0" stop-color="#ff3a44"/>
      <stop offset="1" stop-color="#c31162"/>
    </linearGradient>
    <linearGradient id="linear-gradient-4" x1="-0.186" y1="2.701" x2="0.423" y2="1.909" gradientUnits="objectBoundingBox">
      <stop offset="0" stop-color="#32a071"/>
      <stop offset="0.069" stop-color="#2da771"/>
      <stop offset="0.476" stop-color="#15cf74"/>
      <stop offset="0.801" stop-color="#06e775"/>
      <stop offset="1" stop-color="#00f076"/>
    </linearGradient>
  </defs>
  <path id="Tracé_1519" data-name="Tracé 1519" d="M171.583,52.795H6.6A6.535,6.535,0,0,1,0,46.2V6.6A6.535,6.535,0,0,1,6.6,0H171.583a6.535,6.535,0,0,1,6.6,6.6V46.2A6.535,6.535,0,0,1,171.583,52.795Z"/>
  <path id="Tracé_1520" data-name="Tracé 1520" d="M171.583,1.056A5.577,5.577,0,0,1,177.126,6.6V46.2a5.577,5.577,0,0,1-5.543,5.543H6.6A5.577,5.577,0,0,1,1.056,46.2V6.6A5.577,5.577,0,0,1,6.6,1.056H171.583m0-1.056H6.6A6.619,6.619,0,0,0,0,6.6V46.2a6.535,6.535,0,0,0,6.6,6.6H171.583a6.535,6.535,0,0,0,6.6-6.6V6.6A6.619,6.619,0,0,0,171.583,0Z" fill="#a6a6a6"/>
  <path id="Tracé_1522" data-name="Tracé 1522" d="M76.736,23.3a5.553,5.553,0,0,0-5.675,5.675,5.633,5.633,0,0,0,5.675,5.675,5.553,5.553,0,0,0,5.675-5.675A5.476,5.476,0,0,0,76.736,23.3Zm0,8.975a3.276,3.276,0,0,1-3.168-3.432,3.276,3.276,0,0,1,3.168-3.432A3.2,3.2,0,0,1,79.9,28.847,3.276,3.276,0,0,1,76.736,32.278ZM64.462,23.3a5.553,5.553,0,0,0-5.675,5.675,5.633,5.633,0,0,0,5.675,5.675,5.553,5.553,0,0,0,5.675-5.675A5.476,5.476,0,0,0,64.462,23.3Zm0,8.975a3.276,3.276,0,0,1-3.168-3.432,3.276,3.276,0,0,1,3.168-3.432,3.2,3.2,0,0,1,3.168,3.432A3.276,3.276,0,0,1,64.462,32.278ZM49.811,25.019v2.376h5.675a4.991,4.991,0,0,1-1.32,3.036,5.842,5.842,0,0,1-4.356,1.716,6.145,6.145,0,0,1-6.2-6.335,6.226,6.226,0,0,1,6.2-6.335,6.544,6.544,0,0,1,4.356,1.716l1.716-1.716A8.458,8.458,0,0,0,49.943,17.1,8.9,8.9,0,0,0,41.1,25.811a8.9,8.9,0,0,0,8.843,8.711,7.6,7.6,0,0,0,6.071-2.508,7.945,7.945,0,0,0,2.112-5.543,4.949,4.949,0,0,0-.132-1.452Zm59.922,1.848a5.128,5.128,0,0,0-4.752-3.564A5.316,5.316,0,0,0,99.7,28.979a5.523,5.523,0,0,0,5.543,5.675,5.414,5.414,0,0,0,4.62-2.508l-1.848-1.32a3.217,3.217,0,0,1-2.772,1.584,2.864,2.864,0,0,1-2.772-1.716L110,27.527l-.264-.66Zm-7.655,1.848a3.206,3.206,0,0,1,2.9-3.3,2.335,2.335,0,0,1,2.112,1.188l-5.016,2.112Zm-6.2,5.411h2.508v-16.5H95.874Zm-3.96-9.635a4.346,4.346,0,0,0-3.036-1.32,5.671,5.671,0,0,0-5.411,5.675,5.465,5.465,0,0,0,5.411,5.543,3.79,3.79,0,0,0,2.9-1.32h.132v.792c0,2.112-1.188,3.3-3.036,3.3a2.932,2.932,0,0,1-2.772-1.98L84,36.106a5.445,5.445,0,0,0,5.015,3.3c2.9,0,5.279-1.716,5.279-5.807V23.567H91.915v.924Zm-2.9,7.787a3.276,3.276,0,0,1-3.168-3.432,3.276,3.276,0,0,1,3.168-3.432,3.175,3.175,0,0,1,3.036,3.432A3.175,3.175,0,0,1,89.011,32.278Zm32.2-14.65h-5.939v16.5h2.508v-6.2h3.432a5.154,5.154,0,1,0,0-10.295Zm.132,7.919h-3.564V19.872h3.564a2.9,2.9,0,0,1,2.9,2.772,3.021,3.021,0,0,1-2.9,2.9Zm15.178-2.376a4.436,4.436,0,0,0-4.356,2.508l2.244.924a2.331,2.331,0,0,1,2.244-1.188,2.48,2.48,0,0,1,2.64,2.112v.132A5.235,5.235,0,0,0,136.79,27c-2.376,0-4.752,1.32-4.752,3.7a3.867,3.867,0,0,0,4.092,3.7,3.714,3.714,0,0,0,3.168-1.584h.132v1.32h2.376V27.791a5,5,0,0,0-5.279-4.62Zm-.264,9.107c-.792,0-1.98-.4-1.98-1.452,0-1.32,1.452-1.716,2.64-1.716a5.1,5.1,0,0,1,2.244.528A3.074,3.074,0,0,1,136.262,32.278Zm13.859-8.711-2.772,7.127h-.132l-2.9-7.127h-2.64L146.029,33.6l-2.508,5.543h2.508l6.731-15.574ZM127.947,34.126h2.508v-16.5h-2.508Z" transform="translate(13.147 5.47)" fill="#fff"/>
  <path id="Tracé_1523" data-name="Tracé 1523" d="M10.528,7.5A2.58,2.58,0,0,0,10,9.348V38.517a2.611,2.611,0,0,0,.66,1.848l.132.132L27.158,24.13v-.264Z" transform="translate(3.199 2.399)" fill="url(#linear-gradient)"/>
  <path id="Tracé_1524" data-name="Tracé 1524" d="M28.311,27.019,22.9,21.607v-.4L28.311,15.8l.132.132,6.467,3.7c1.848,1.056,1.848,2.772,0,3.828Z" transform="translate(7.325 5.054)" fill="url(#linear-gradient-2)"/>
  <path id="Tracé_1525" data-name="Tracé 1525" d="M32.442,25.543,26.9,20,10.4,36.5c.66.66,1.584.66,2.772.132l19.27-11.087" transform="translate(3.327 6.397)" fill="url(#linear-gradient-3)"/>
  <path id="Tracé_1526" data-name="Tracé 1526" d="M32.442,18.56,13.172,7.605a2.139,2.139,0,0,0-2.772.132L26.9,24.1l5.543-5.543Z" transform="translate(3.327 2.294)" fill="url(#linear-gradient-4)"/>
  <path id="Tracé_1527" data-name="Tracé 1527" d="M32.31,24.1,13.172,34.923a2.158,2.158,0,0,1-2.64,0l-.132.132.132.132a2.158,2.158,0,0,0,2.64,0Z" transform="translate(3.327 7.709)" opacity="0.2"/>
  <path id="Tracé_1528" data-name="Tracé 1528" d="M10.528,36.234A2.58,2.58,0,0,1,10,34.387v.132a2.611,2.611,0,0,0,.66,1.848v-.132h-.132ZM39.037,21.716l-6.6,3.7.132.132,6.467-3.7A2.194,2.194,0,0,0,40.357,20C40.357,20.66,39.829,21.188,39.037,21.716Z" transform="translate(3.199 6.397)" opacity="0.12"/>
  <path id="Tracé_1529" data-name="Tracé 1529" d="M13.3,7.745,39.037,22.4c.792.528,1.32,1.056,1.32,1.716a2.194,2.194,0,0,0-1.32-1.848L13.3,7.613C11.452,6.557,10,7.349,10,9.461v.132C10,7.613,11.452,6.689,13.3,7.745Z" transform="translate(3.199 2.286)" fill="#fff" opacity="0.25"/>
  <text id="DISPONIBLE_SUR" data-name="DISPONIBLE SUR" transform="translate(54.045 15.764)" fill="#fff" font-size="11" font-family="OpenSans, Open Sans"><tspan x="0" y="0">DISPONIBLE SUR</tspan></text>
</svg>
