<svg xmlns="http://www.w3.org/2000/svg" width="46.581" height="45.947" viewBox="0 0 46.581 45.947">
  <path id="Icon_ionic-ios-airplane" data-name="Icon ionic-ios-airplane" d="M30.2,12.217c-.273,0-1.19.008-1.447.024l-5.216.137a.149.149,0,0,1-.137-.072L15.578.595A1.292,1.292,0,0,0,14.493,0h-1.9c-.45,0-.6.45-.442.868l4.027,11.477a.157.157,0,0,1-.145.217l-9.838.145a.647.647,0,0,1-.53-.249L2.687,8.841a1.276,1.276,0,0,0-1.013-.49H.324a.32.32,0,0,0-.305.426l1.6,5.522a1.31,1.31,0,0,1,0,.956l-1.6,5.522a.32.32,0,0,0,.305.426H1.666a1.3,1.3,0,0,0,1.013-.49l3.03-3.673a.658.658,0,0,1,.53-.249l9.781.217a.159.159,0,0,1,.145.217L12.138,28.709c-.161.418-.008.868.442.868h1.9a1.281,1.281,0,0,0,1.085-.595L23.4,17.28a.158.158,0,0,1,.137-.072l5.216.137c.265.016,1.173.024,1.447.024,3.561,0,5.811-1.149,5.811-2.572S33.767,12.217,30.2,12.217Z" transform="translate(0 23.624) rotate(-41)"/>
</svg>
