<svg xmlns="http://www.w3.org/2000/svg" width="33.154" height="33.154" viewBox="0 0 33.154 33.154">
  <path id="Icon_awesome-bus" data-name="Icon awesome-bus" d="M31.6,8.288h-.518V5.18c0-2.9-6.424-5.18-14.5-5.18s-14.5,2.279-14.5,5.18V8.288H1.554A1.554,1.554,0,0,0,0,9.842v5.18a1.554,1.554,0,0,0,1.554,1.554h.518V26.937a2.072,2.072,0,0,0,2.072,2.072v2.072a2.072,2.072,0,0,0,2.072,2.072H8.288a2.072,2.072,0,0,0,2.072-2.072V29.009H22.793v2.072a2.072,2.072,0,0,0,2.072,2.072h2.072a2.072,2.072,0,0,0,2.072-2.072V29.009h.414a1.634,1.634,0,0,0,1.658-1.658V16.577H31.6a1.554,1.554,0,0,0,1.554-1.554V9.842A1.554,1.554,0,0,0,31.6,8.288ZM7.252,25.9a2.072,2.072,0,1,1,2.072-2.072A2.072,2.072,0,0,1,7.252,25.9Zm1.036-7.252a2.072,2.072,0,0,1-2.072-2.072V8.288A2.072,2.072,0,0,1,8.288,6.216H24.865a2.072,2.072,0,0,1,2.072,2.072v8.288a2.072,2.072,0,0,1-2.072,2.072ZM25.9,25.9a2.072,2.072,0,1,1,2.072-2.072A2.072,2.072,0,0,1,25.9,25.9Z"/>
</svg>
