<svg xmlns="http://www.w3.org/2000/svg" width="28.497" height="33.678" viewBox="0 0 28.497 33.678">
  <path id="Icon_ionic-md-train" data-name="Icon ionic-md-train" d="M19.873,3.375c-7.124,0-14.248.882-14.248,7.092V27.306a6.219,6.219,0,0,0,6.234,6.2L9.187,36.162v.891h3.975l3.562-3.546h6.711L27,37.053h3.562V36.17l-2.672-2.655a6.224,6.224,0,0,0,6.234-6.2V10.475C34.122,4.257,27.742,3.375,19.873,3.375ZM11.859,29.961a2.655,2.655,0,1,1,2.672-2.655A2.66,2.66,0,0,1,11.859,29.961Zm6.234-12.4H9.187V10.467h8.905Zm3.562,0V10.467h8.905v7.092Zm6.234,12.4a2.655,2.655,0,1,1,2.672-2.655A2.66,2.66,0,0,1,27.888,29.961Z" transform="translate(-5.625 -3.375)" fill="#fff"/>
</svg>
