<svg xmlns="http://www.w3.org/2000/svg" width="41.151" height="30.863" viewBox="0 0 41.151 30.863">
  <path id="Icon_awesome-car" data-name="Icon awesome-car" d="M40.186,13.5H35.374l-1.337-3.344A8.956,8.956,0,0,0,25.679,4.5H15.472a8.959,8.959,0,0,0-8.358,5.658L5.776,13.5H.965A.964.964,0,0,0,.03,14.7l.482,1.929a.964.964,0,0,0,.936.731H3.061a5.108,5.108,0,0,0-1.775,3.858v3.858a5.1,5.1,0,0,0,1.286,3.37v4.346a2.572,2.572,0,0,0,2.572,2.572H7.716a2.572,2.572,0,0,0,2.572-2.572V30.219H30.863v2.572a2.572,2.572,0,0,0,2.572,2.572h2.572a2.572,2.572,0,0,0,2.572-2.572V28.446a5.1,5.1,0,0,0,1.286-3.37V21.218a5.11,5.11,0,0,0-1.774-3.858H39.7a.964.964,0,0,0,.936-.731l.482-1.929a.965.965,0,0,0-.936-1.2Zm-28.3-1.433a3.858,3.858,0,0,1,3.582-2.425H25.679a3.858,3.858,0,0,1,3.582,2.425l1.6,4H10.288ZM7.716,25.059A2.426,2.426,0,0,1,5.144,22.5a2.426,2.426,0,0,1,2.572-2.564c1.543,0,3.858,2.308,3.858,3.846S9.259,25.059,7.716,25.059Zm25.719,0c-1.543,0-3.858.256-3.858-1.282s2.315-3.846,3.858-3.846A2.426,2.426,0,0,1,36.007,22.5a2.426,2.426,0,0,1-2.572,2.564Z" transform="translate(0 -4.5)" fill="#fff"/>
</svg>
