<?xml version="1.0" encoding="utf-8"?>
<!-- Generator: Adobe Illustrator 27.0.0, SVG Export Plug-In . SVG Version: 6.00 Build 0)  -->
<svg version="1.1" id="Calque_1" xmlns="http://www.w3.org/2000/svg" xmlns:xlink="http://www.w3.org/1999/xlink" x="0px" y="0px"
	 viewBox="0 0 22.6 23.1" style="enable-background:new 0 0 22.6 23.1;" xml:space="preserve">
<style type="text/css">
	.st0{fill:#FFFFFF;}
</style>
<path id="Icon_awesome-arrow-down" class="st0" d="M18.6,7.4l0.9,0.9c0.4,0.4,0.4,0.9,0,1.3c0,0,0,0,0,0l-7.5,7.5
	c-0.4,0.4-0.9,0.4-1.3,0c0,0,0,0,0,0L3.1,9.6c-0.4-0.4-0.4-0.9,0-1.3c0,0,0,0,0,0L4,7.4c0.4-0.4,1-0.4,1.3,0c0,0,0,0,0,0l4.4,4.7
	V0.9c0-0.5,0.4-0.9,0.9-0.9c0,0,0,0,0,0h1.2c0.5,0,0.9,0.4,0.9,0.9c0,0,0,0,0,0v11.1l4.4-4.7C17.6,7,18.2,7,18.6,7.4
	C18.6,7.4,18.6,7.4,18.6,7.4z"/>
<path class="st0" d="M20,23.1H2.6c-0.6,0-1-0.5-1-1v-1.7c0-0.6,0.5-1,1-1H20c0.6,0,1,0.5,1,1v1.7C21,22.7,20.6,23.1,20,23.1z"/>
</svg>
