<?xml version="1.0" encoding="UTF-8"?><svg id="Calque_2" xmlns="http://www.w3.org/2000/svg" viewBox="0 0 208.22 204.21"><defs><style>.cls-1{fill:#fff;stroke:#fff;stroke-miterlimit:10;stroke-width:.03px;}</style></defs><g id="Calque_1-2"><g><rect class="cls-1" x="202.53" y="159.35" width=".37" height="12.02" transform="translate(-39.68 263.77) rotate(-61.3)"/><path class="cls-1" d="M197.27,137.67c-2.68-1.52-5.35-3.05-8.03-4.57-3.1-.01-6.31,.06-9.54,.21l-.02-.37c3.26-.15,6.49-.22,9.61-.21h.05l.04,.02c2.78,1.54,5.57,3.08,8.35,4.62-.15,.1-.3,.2-.45,.3Z"/><rect class="cls-1" x="171.71" y="169.27" width=".37" height="9.72" transform="translate(-63.21 241.92) rotate(-61.45)"/><path class="cls-1" d="M141.06,174.11l-.37-.07,2.98-15.48c.99-5.16,1.99-10.31,2.98-15.46l.02-.12,.12-.02c2.2-.43,4.37-.85,6.48-1.23l-8.01-4.36c-2.19,.39-4.48,.82-6.81,1.28-.36,1.86-.74,3.77-1.11,5.67-.4,2.01-.79,4.02-1.17,5.98l-.37-.07c.38-1.96,.78-3.97,1.17-5.98,.39-1.95,.77-3.9,1.14-5.8l.02-.12,.12-.02c2.4-.47,4.76-.92,7-1.32h.06s8.36,4.54,8.36,4.54l1.61-6.18,.12-.02c.62-.09,1.23-.18,1.85-.27,3.3-.46,6.6-.87,9.81-1.2h.06s8.64,4.63,8.64,4.63l-.18,.33-8.54-4.58c-3.19,.33-6.46,.73-9.74,1.19-.57,.08-1.15,.16-1.72,.25l-1.67,6.41-.13-.07c-2.21,.4-4.5,.83-6.81,1.28-.99,5.11-1.97,10.22-2.95,15.34l-2.98,15.48Z"/><path class="cls-1" d="M31.55,203.84c-2.85-1.58-5.69-3.15-8.54-4.73l.02-10.34h.37s-.02,10.12-.02,10.12l8.16,4.44,.07-37.46h.37c-.15,12.66-.3,25.32-.44,37.98Z"/><path class="cls-1" d="M58.51,186.55c-1.3-1.91-2.59-3.82-3.89-5.74l-.03-.05v-.06l.02-11.06,.02-.04c1.3-2.32,2.61-4.65,3.91-6.99l.04-.08h.09c4.77-.81,9.74-1.74,15.2-2.87l.08,.37c-5.43,1.12-10.38,2.05-15.12,2.84-1.28,2.3-2.56,4.59-3.85,6.87l-.02,10.9c1.28,1.91,2.57,3.81,3.86,5.7l-.31,.21Z"/><polygon class="cls-1" points="90.4 194.15 81.87 189.36 81.87 189.25 81.92 165.06 82.29 165.06 82.25 189.14 90.58 193.82 90.4 194.15"/><path class="cls-1" d="M8.55,203.84c-2.85-1.57-5.69-3.14-8.54-4.71v-.11s.07-37.98,.07-37.98h.2c6.39,.42,13.14,.47,20.07,.15l.02,.37c-6.87,.32-13.57,.28-19.91-.12l-.07,37.47,8.16,4.44,.07-37.66h.2c4.63,.31,9.49,.42,14.43,.32v.37c-4.88,.09-9.68-.01-14.26-.3-.15,12.58-.3,25.17-.44,37.75Z"/><path class="cls-1" d="M48.17,162l-4.94-2.69-.78,.11c-6.43,.9-13.15,1.58-19.43,1.97l-.02-.37c6.27-.39,12.98-1.07,19.4-1.97l.9-.13,4.72,2.57,.47-.85c.5-.9,1-1.79,1.51-2.69l.04-.08h.09c5.27-.89,10.71-1.92,16.65-3.17h.07s6.87,3.73,6.87,3.73v-5.22s.16-.03,.16-.03c8.65-1.92,17.45-4.06,25.95-6.12l.12-.03,3.78,2.06v-2.98s.15-.03,.15-.03c3.18-.77,6.37-1.54,9.56-2.29l.07-.02,3.55,1.93-.54-2.64,.18-.04c3.47-.81,6.64-1.53,9.7-2.21l.08,.37c-3.01,.67-6.13,1.38-9.52,2.17l.63,3.07-4.13-2.25c-3.12,.74-6.23,1.49-9.34,2.24v3.31s-4.21-2.29-4.21-2.29c-8.45,2.05-17.2,4.18-25.8,6.09v5.55s-7.32-3.97-7.32-3.97c-5.88,1.23-11.28,2.25-16.5,3.13-.49,.87-.97,1.74-1.46,2.61l-.66,1.17Z"/><polygon class="cls-1" points="132.56 184.12 124.01 179.37 121.84 168.88 122.21 168.81 124.34 179.13 132.44 183.54 125.09 147.87 125.46 147.8 132.56 184.12"/><polygon class="cls-1" points="112.21 188.92 103.77 184.2 103.95 183.87 112.21 188.44 112.28 150.9 112.66 150.9 112.21 188.92"/><path class="cls-1" d="M55.48,201.01h-.37s.01-7.55,.01-7.55l.16-.02c4.36-.68,8.84-1.47,13.71-2.42l.64-1.21v-4.11c-.21-.35-.44-.71-.66-1.06l.32-.2c.23,.37,.47,.73,.7,1.1l.03,.05v4.31s-.77,1.45-.77,1.45l-.09,.02c-4.84,.94-9.31,1.73-13.65,2.41v7.23Z"/><path class="cls-1" d="M65.12,175.19l-.07-.37c3.32-.62,6.74-1.29,10.45-2.07l.08,.37c-3.71,.78-7.13,1.45-10.46,2.07Z"/><path class="cls-1" d="M187.94,137.77c3.2-.15,6.4-.22,9.6-.21-.04,10.13-.07,20.26-.11,30.39,3.48,0,6.96,.12,10.45,.35,0,2.46,0,4.93-.01,7.39-6.66-.43-13.33-.45-19.99-.14,.02-12.59,.05-25.18,.07-37.78Z"/><path class="cls-1" d="M208.05,175.88h-.2c-6.39-.42-13.11-.47-19.97-.15h-.2s.07-38.14,.07-38.14h.18c3.25-.16,6.48-.23,9.61-.22h.19s-.11,30.39-.11,30.39c3.46,.01,6.91,.13,10.27,.35h.18s-.01,7.78-.01,7.78Zm-11.25-.73c3.7,0,7.34,.11,10.87,.34v-7.02c-3.35-.21-6.8-.33-10.25-.34h-.19s.11-30.39,.11-30.39c-3-.01-6.1,.06-9.22,.2l-.07,37.4c2.95-.13,5.87-.2,8.75-.2Z"/><path class="cls-1" d="M175.64,138.7c3.47,12.23,6.95,24.54,10.43,36.94-3.28,.18-6.57,.44-9.85,.77-.51-1.84-1.03-3.67-1.54-5.51-2.94,.31-5.88,.68-8.83,1.09-1.14,.16-2.28,.33-3.42,.5-.52,1.97-1.04,3.93-1.56,5.9-2.37,.37-4.73,.77-7.1,1.2,3.41-13.2,6.82-26.35,10.22-39.44,.62-.09,1.23-.18,1.85-.27,3.27-.46,6.53-.86,9.8-1.2Zm-9.89,25.98c2.28-.32,4.56-.61,6.84-.88-1.37-4.86-2.75-9.71-4.12-14.55-1.36,5.2-2.72,10.4-4.08,15.62,.45-.07,.91-.13,1.36-.19"/><path class="cls-1" d="M153.51,179.83l.07-.28c3.53-13.66,6.97-26.93,10.22-39.44l.03-.12,.12-.02c.62-.09,1.23-.18,1.85-.27,3.31-.46,6.61-.87,9.81-1.2l.16-.02,.04,.15c3.55,12.51,7.06,24.94,10.43,36.94l.06,.22h-.23c-3.2,.19-6.51,.45-9.84,.78l-.16,.02-1.54-5.51c-2.81,.3-5.73,.66-8.66,1.08-1.1,.15-2.2,.32-3.3,.48-.51,1.93-1.02,3.86-1.53,5.79l-.03,.12-.12,.02c-2.42,.38-4.81,.79-7.1,1.19l-.29,.05Zm10.63-39.51c-3.23,12.39-6.63,25.52-10.12,39.04,2.16-.39,4.42-.76,6.7-1.13,.51-1.93,1.02-3.86,1.53-5.79l.03-.12,.12-.02c1.14-.17,2.28-.34,3.43-.5,3-.42,5.97-.79,8.83-1.09l.16-.02,1.54,5.51c3.2-.32,6.39-.57,9.47-.74-3.33-11.89-6.81-24.19-10.32-36.56-3.15,.33-6.39,.72-9.64,1.18-.57,.08-1.15,.16-1.72,.25Zm0,24.77l.07-.27c1.36-5.22,2.72-10.42,4.08-15.62l.17-.66,.19,.66c1.37,4.84,2.75,9.69,4.12,14.55l.06,.21-.22,.03c-2.25,.26-4.55,.55-6.84,.88h0c-.45,.06-.9,.13-1.36,.19l-.28,.04Zm4.34-15.13c-1.28,4.88-2.56,9.78-3.83,14.68,.36-.05,.72-.1,1.08-.15h0c2.22-.31,4.45-.6,6.63-.85-1.29-4.57-2.58-9.13-3.87-13.67Z"/><path class="cls-1" d="M153.83,141.82c-2.52,13.04-5.05,26.11-7.57,39.2-4.52,.89-9.04,1.86-13.55,2.88-2.48-12.03-4.96-24.05-7.43-36.06,3.23-.76,6.47-1.49,9.7-2.21,1.97,9.48,3.93,18.96,5.9,28.45,1.99-10.33,3.97-20.64,5.96-30.94,2.33-.46,4.67-.9,7-1.32Z"/><path class="cls-1" d="M132.56,184.12l-.04-.19c-2.48-12.03-4.96-24.05-7.43-36.06l-.04-.18,.18-.04c3.43-.8,6.61-1.53,9.7-2.21l.19-.04,.04,.19c1.9,9.17,3.8,18.35,5.71,27.54l.82-4.25c1.65-8.6,3.31-17.19,4.96-25.77l.02-.12,.12-.02c2.38-.47,4.74-.91,7-1.32l.27-.05-.05,.27c-2.52,13.04-5.05,26.11-7.57,39.2l-.02,.12-.12,.02c-4.19,.83-8.63,1.77-13.55,2.88l-.19,.04Zm-7.07-36.14c2.45,11.89,4.9,23.78,7.36,35.69,4.8-1.08,9.14-2,13.25-2.81,2.5-12.96,5-25.89,7.5-38.81-2.14,.39-4.36,.81-6.6,1.25-1.65,8.54-3.29,17.09-4.94,25.65l-1.17,6.09-.19-.92c-1.95-9.44-3.9-18.86-5.86-28.27-2.98,.66-6.04,1.36-9.34,2.13Z"/><path class="cls-1" d="M122.03,148.6c-.02,12.59-.05,25.18-.07,37.78-3.19,.76-6.37,1.52-9.55,2.29,.02-12.59,.05-25.18,.07-37.78,3.18-.77,6.37-1.54,9.55-2.29Z"/><path class="cls-1" d="M112.21,188.92l.07-38.16,.14-.03c3.18-.77,6.37-1.54,9.56-2.29l.23-.05-.07,38.16-.14,.03c-3.19,.76-6.37,1.52-9.55,2.29l-.23,.06Zm.44-37.87l-.07,37.39c3.06-.74,6.12-1.48,9.18-2.2l.07-37.39c-3.06,.73-6.12,1.46-9.18,2.2Z"/><path class="cls-1" d="M108.47,151.87c0,2.46,0,4.93-.01,7.39-2.73,.66-5.47,1.33-8.2,1.98-.04,10.14-.07,20.27-.11,30.4-3.18,.77-6.37,1.53-9.55,2.27,.02-10.13,.04-20.26,.06-30.39-2.73,.64-5.47,1.26-8.2,1.87v-7.39c8.68-1.93,17.35-4.03,26.02-6.14Z"/><path class="cls-1" d="M90.41,194.15l.06-30.39c-2.96,.69-5.57,1.28-7.98,1.82l-.23,.05v-7.78s.16-.03,.16-.03c8.69-1.93,17.49-4.07,26-6.14l.23-.06v7.78s-2.37,.57-2.37,.57c-1.95,.47-3.9,.95-5.84,1.41-.04,10.09-.07,20.17-.11,30.25v.15s-.14,.03-.14,.03c-3.48,.84-6.6,1.58-9.55,2.27l-.23,.05Zm.43-30.86l-.06,30.39c2.84-.66,5.85-1.38,9.18-2.18,.03-10.05,.07-20.09,.11-30.14v-.26s.14-.03,.14-.03c1.99-.48,3.99-.96,5.98-1.45l2.07-.5v-7.01c-8.38,2.04-17.06,4.14-25.62,6.05v7.01c2.39-.54,5-1.13,7.96-1.82l.23-.05Z"/><path class="cls-1" d="M75.36,159.54v7.39c-3.43,.72-6.85,1.39-10.27,2.03-.25,.44-.5,.88-.75,1.33,0,1.2,0,2.41,0,3.61,.25,.37,.5,.74,.75,1.11,3.48-.64,6.97-1.34,10.45-2.07,1.3,1.85,2.59,3.7,3.89,5.53,0,3.87-.01,7.74-.02,11.61-1.3,2.4-2.61,4.8-3.91,7.2-6.73,1.41-13.47,2.69-20.2,3.73v-7.39c4.62-.72,9.22-1.54,13.82-2.44,.23-.44,.47-.89,.7-1.33,0-1.4,0-2.81,0-4.21-.23-.37-.46-.74-.7-1.1-3.48,.68-6.97,1.32-10.45,1.9-1.3-1.91-2.59-3.82-3.89-5.74,0-3.67,.01-7.34,.02-11.01,1.3-2.32,2.61-4.65,3.91-6.99,5.55-.93,11.1-1.99,16.65-3.15Z"/><path class="cls-1" d="M55.1,201.23v-7.77s.17-.02,.17-.02c4.37-.68,8.85-1.47,13.71-2.42l.64-1.21v-4.11c-.19-.32-.39-.63-.59-.95-3.54,.69-7.02,1.32-10.33,1.87l-.12,.02-.07-.1c-1.3-1.91-2.59-3.82-3.89-5.74l-.03-.05,.02-11.12,.02-.04c1.3-2.32,2.61-4.65,3.91-6.99l.04-.08h.09c5.26-.89,10.71-1.92,16.65-3.17l.23-.05v7.78s-.16,.03-.16,.03c-3.47,.73-6.9,1.4-10.17,2.01l-.69,1.21v3.51s.64,.96,.64,.96c3.29-.61,6.66-1.28,10.33-2.04l.12-.03,1.34,1.91c.87,1.24,1.75,2.49,2.62,3.72l.03,.05-.02,11.71-.02,.04c-1.3,2.4-2.61,4.81-3.91,7.2l-.04,.08-.08,.02c-7.34,1.54-13.95,2.76-20.21,3.73l-.22,.03Zm.39-7.45v7.01c6.15-.96,12.66-2.17,19.88-3.68,1.28-2.36,2.57-4.72,3.85-7.08l.02-11.5c-.86-1.22-1.72-2.45-2.58-3.68l-1.2-1.71c-3.66,.77-7.04,1.43-10.34,2.04l-.12,.02-.85-1.26v-3.72s.83-1.45,.83-1.45l.09-.02c3.25-.6,6.65-1.27,10.1-2v-7.01c-5.81,1.22-11.16,2.23-16.33,3.09-1.28,2.3-2.56,4.59-3.84,6.87l-.02,10.9c1.26,1.87,2.53,3.74,3.79,5.6,3.32-.55,6.79-1.18,10.33-1.88l.13-.02,.07,.11c.23,.37,.47,.73,.7,1.1l.03,.05v4.31s-.77,1.45-.77,1.45l-.09,.02c-4.83,.94-9.3,1.73-13.65,2.41Z"/><path class="cls-1" d="M31.81,165.86c6.39-.39,12.78-1.08,19.16-1.97,.28-.04,.56-.08,.84-.12,0,2.46,0,4.93-.01,7.39-.27,.04-.54,.08-.81,.12-3.2,.45-6.39,.85-9.59,1.18-.02,2.61-.04,5.22-.06,7.83,3.14-.32,6.28-.71,9.42-1.15,.35-.05,.62-.07,.97-.12,0,2.45,.06,4.87,.05,7.32-.27,.04-.55,.08-.82,.12-3.21,.45-6.42,.85-9.63,1.18,0,2.61,0,5.22-.01,7.82,3.14-.32,6.28-.71,9.42-1.15,.35-.05,.69-.1,1.03-.15,0,2.47,0,4.93-.01,7.4-.28,.04-.56,.08-.84,.12-6.39,.9-12.77,1.58-19.16,1.97,.02-12.59,.05-25.19,.07-37.78Z"/><path class="cls-1" d="M31.55,203.84l.07-38.15h.18c6.11-.39,12.38-1.03,19.15-1.98l1.05-.15v7.77s-.99,.14-.99,.14c-3.21,.45-6.38,.84-9.43,1.16l-.06,7.45c2.98-.31,6.07-.69,9.2-1.13,.17-.02,.32-.04,.47-.06,.16-.02,.32-.04,.5-.06l.21-.03v.22c0,1.23,.01,2.47,.03,3.67,.01,1.22,.03,2.43,.03,3.65v.16s-.98,.14-.98,.14c-3.23,.45-6.41,.85-9.47,1.17v7.45c2.96-.31,6.06-.69,9.19-1.13,.34-.05,.69-.1,1.03-.15l.21-.03v7.77s-1.01,.14-1.01,.14c-6.78,.95-13.05,1.6-19.18,1.97h-.2Zm.44-37.79l-.07,37.4c6.05-.38,12.25-1.02,18.95-1.96l.68-.1v-7.02c-.26,.04-.53,.08-.81,.12-3.21,.45-6.38,.84-9.42,1.15l-.21,.02,.02-8.2,.17-.02c3.1-.32,6.34-.72,9.63-1.18l.66-.09c0-1.17-.01-2.33-.03-3.48-.01-1.13-.03-2.3-.03-3.46-.1,.01-.19,.02-.29,.04-.15,.02-.3,.04-.46,.06-3.21,.45-6.38,.84-9.42,1.15l-.21,.02,.07-8.21,.17-.02c3.1-.32,6.32-.72,9.58-1.18l.65-.09v-7.01s-.61,.09-.61,.09c-6.72,.94-12.93,1.59-19,1.96Z"/><path class="cls-1" d="M8.81,165.89c6.66,.43,13.33,.44,19.99,.13v7.4c-3.5,.16-6.98,.23-10.46,.21,0,2.61,0,5.22-.01,7.83,3.48,.03,6.97-.05,10.45-.21,0,2.45,0,4.89-.01,7.34-3.48,.16-6.97,.23-10.45,.21,0,5.07-.02,10.15-.03,15.22-3.18-.03-6.36-.14-9.55-.34,.02-12.59,.05-25.19,.07-37.78Z"/><path class="cls-1" d="M18.48,204.2h-.19c-3.2-.03-6.41-.14-9.56-.34h-.18s.07-38.17,.07-38.17h.2c6.37,.42,13.09,.47,19.97,.15h.2s-.01,7.76-.01,7.76h-.18c-3.47,.17-6.92,.24-10.27,.22v7.45c3.29,.02,6.74-.05,10.24-.21h.2s-.01,7.71-.01,7.71h-.18c-3.46,.17-6.91,.24-10.27,.22l-.03,15.22Zm-9.55-.71c3.02,.19,6.11,.3,9.17,.33v-.09l.03-15.13h.19c3.35,.03,6.8-.04,10.26-.2v-6.97c-3.49,.16-6.94,.23-10.25,.2h-.19s.01-8.2,.01-8.2h.19c3.34,.03,6.79-.04,10.26-.2v-7.02c-6.75,.31-13.34,.27-19.61-.13l-.07,37.4Z"/><path class="cls-1" d="M23.38,178.04h-.37c.01-1.45,0-1.84,0-2.22,0-.39,0-.77,0-2.22h.37c-.01,1.45,0,1.83,0,2.22,0,.39,0,.77,0,2.23Z"/><rect class="cls-1" x="23.43" y="172.27" width=".37" height="12.02" transform="translate(-143.66 112.25) rotate(-60.91)"/><rect class="cls-1" x="24.4" y="158.77" width=".37" height="9.8" transform="translate(-131.24 107.9) rotate(-61.76)"/><rect class="cls-1" x="27.37" y="158.7" width=".37" height="9.69" transform="translate(-129.27 109.58) rotate(-61.45)"/><path class="cls-1" d="M23.37,162.99h-.37c0-.38,0-.64,0-.81h0s0-.09,0-.17c0-.03,0-.06,0-.09,0-.2,0-.48,0-.89h.37c0,.38,0,.64,0,.82h0s0,.09,0,.17c0,.03,0,.06,0,.08,0,.2,0,.48,0,.89Z"/><rect class="cls-1" x="49.89" y="160.73" width=".37" height="4.09" transform="translate(-117.58 132.87) rotate(-62.79)"/><rect class="cls-1" x="78.7" y="159.46" width=".37" height="8.04" transform="translate(-102.39 154.13) rotate(-61.29)"/><path class="cls-1" d="M75.42,159.66c-.38-.14-.76-.31-1.12-.5-.14-.07-.28-.15-.41-.22l.19-.32c.13,.07,.26,.14,.39,.22,.35,.18,.71,.34,1.08,.48l-.13,.35Z"/><rect class="cls-1" x="78.15" y="150.81" width=".37" height="9.72" transform="translate(-95.82 149.43) rotate(-61.24)"/><path class="cls-1" d="M108.5,151.97c-1.21-.57-2.31-1.13-3.35-1.69-.43-.23-.85-.46-1.26-.7l.19-.33c.41,.23,.83,.46,1.25,.69,1.04,.56,2.13,1.11,3.34,1.68l-.16,.34Z"/><rect class="cls-1" x="71.31" y="166.14" width=".37" height="9.18" transform="translate(-112.74 152.93) rotate(-61.76)"/><path class="cls-1" d="M104.16,184.21h-.37c.01-7.79,0-9.86,0-11.92,0-2.07,0-4.13,0-11.92h.37c-.01,7.79,0,9.86,0,11.92,0,2.07,0,4.13,0,11.92Z"/><rect class="cls-1" x="108.05" y="143.74" width=".37" height="9.72" transform="translate(-74.11 171.97) rotate(-61.24)"/><rect class="cls-1" x="119.54" y="144.58" width=".37" height="5.4" transform="translate(-66.01 186.37) rotate(-62.77)"/><rect class="cls-1" x="120.83" y="140.66" width=".37" height="9.72" transform="translate(-64.78 181.58) rotate(-61.24)"/><rect class="cls-1" x="142.49" y="136.12" width=".37" height="9.72" transform="translate(-49.57 198.21) rotate(-61.24)"/><rect class="cls-1" x="130.48" y="138.33" width=".37" height="9.87" transform="translate(-57.01 192.02) rotate(-62.2)"/><rect class="cls-1" x="159.6" y="133.01" width=".37" height="9.76" transform="translate(-37.67 212.43) rotate(-61.47)"/><rect class="cls-1" x="183.75" y="130.69" width=".37" height="9.53" transform="translate(-24.36 229.23) rotate(-60.61)"/><path class="cls-1" d="M180.04,153.55h-.37c.01-6.73,0-8.52,0-10.3,0-1.79,0-3.57,0-10.31h.37c-.01,6.73,0,8.52,0,10.3,0,1.79,0,3.57,0,10.31Z"/><rect class="cls-1" x="186.52" y="173.68" width=".37" height="2.51" transform="translate(-59.66 243.95) rotate(-58.79)"/><rect class="cls-1" x="54.33" y="155.51" width=".37" height="9.72" transform="translate(-112.3 130.99) rotate(-61.24)"/><rect class="cls-1" x="53.04" y="167.32" width=".37" height="3.43" transform="translate(-122.13 143.38) rotate(-64.2)"/><rect class="cls-1" x="50.33" y="173.42" width=".37" height="9.72" transform="translate(-130.07 136.77) rotate(-61.24)"/><rect class="cls-1" x="51" y="186.45" width=".37" height="9.72" transform="translate(-141.15 144.12) rotate(-61.24)"/><path class="cls-1" d="M55.1,201.23c-1.15-.63-2.3-1.26-3.44-1.88l.17-.33,3.54,1.83c-.09,.13-.18,.26-.27,.39Z"/><path class="cls-1" d="M46.56,176.15h-.37c.01-1.41,0-1.78,0-2.16,0-.37,0-.75,0-2.16h.37c-.01,1.41,0,1.78,0,2.16,0,.37,0,.75,0,2.16Z"/><path class="cls-1" d="M47,191.62h-.37c0-.51,0-.88,0-1.14h0s0-.15,0-.27c0-.06,0-.11,0-.15,0-.28,0-.68,0-1.25h.37c0,.51,0,.88,0,1.14h0s0,.15,0,.27c0,.06,0,.11,0,.15,0,.28,0,.68,0,1.25Z"/><rect class="cls-1" x="150.16" y="174.28" width=".37" height="7.35" transform="translate(-77.15 228.09) rotate(-62.24)"/><polygon class="cls-1" points="51.76 194.25 41.13 188.98 41.3 188.65 51.92 193.91 51.76 194.25"/><path class="cls-1" d="M60.36,186.74l-1.62,.29c-3.93,.7-7.86,1.4-11.8,2.1-.1-.11-.21-.22-.31-.33,4.43-.83,8.86-1.66,13.28-2.49,.15,.14,.29,.29,.44,.43Z"/><rect class="cls-1" x="46.38" y="170.33" width=".37" height="11.8" transform="translate(-131.32 136.46) rotate(-62.59)"/><rect class="cls-1" x="4.72" y="158.93" width=".37" height="9.69" transform="translate(-141.29 89.8) rotate(-61.45)"/><rect class="cls-1" x="64.31" y="183.58" width=".37" height="10.39" transform="translate(-133.36 163.34) rotate(-63.81)"/><polygon class="cls-1" points="207.91 113.68 188.06 104.21 188.22 103.87 208.02 113.34 207.91 113.68"/><path class="cls-1" d="M205.51,113.32c-1.51-.22-3.05-.42-4.6-.58-1.51-.16-3.06-.29-4.6-.39-2.26-.15-4.58-.24-6.9-.26v-.37c2.33,.02,4.66,.11,6.92,.26,1.55,.1,3.1,.23,4.61,.39,1.55,.16,3.1,.36,4.61,.58l-.05,.37Z"/><path class="cls-1" d="M125.57,97.89l-.1-.36c5.61-1.6,10.6-2.94,15.26-4.11l.09,.36c-4.65,1.17-9.64,2.51-15.25,4.11Z"/><path class="cls-1" d="M179.83,123.27l-12.63-6.9,.18-.33,12,6.53c-1.74-2.75-3.54-5.56-5.37-8.37l-.03-.05v-.06l.07-37.11,.03-.04c2.13-3.66,4.02-6.89,5.79-9.88l.05-.09h.1c7.36-.44,14.21-.3,20.95,.41,1.97,.21,3.95,.47,5.89,.78l-11.64-6.33c-8.8-1.49-17.87-1.93-27.72-1.36-1.17,1.97-2.34,3.97-3.51,5.97l-.09,.16-8.98-4.88-.69,.1c-4.23,.59-8.68,1.37-13.23,2.3l-.06,29.65-11.13-6.05,.18-.33,10.57,5.75,.05-29.32,.15-.03c4.61-.95,9.12-1.73,13.4-2.34l.81-.11,.05,.03,8.71,4.74c1.16-1.98,2.31-3.95,3.47-5.9l.05-.09h.1c9.92-.59,19.06-.14,27.93,1.36l.06,.02,12.73,6.88-.22,.34c-2.28-.39-4.63-.71-6.96-.95-6.69-.7-13.49-.84-20.79-.42-1.74,2.95-3.61,6.14-5.71,9.74l-.07,36.96c1.95,3,3.88,6.01,5.73,8.94l-.26,.29Z"/><rect class="cls-1" x="125.46" y="98.59" width="55.91" height=".37" transform="translate(54.33 252) rotate(-89.89)"/><path class="cls-1" d="M67.47,140.06h-.37s.09-46.56,.09-46.56l.15-.03c3.68-.75,7.5-1.62,11.69-2.66l.09,.36c-4.14,1.02-7.92,1.88-11.56,2.63l-.09,46.26Z"/><path class="cls-1" d="M45.87,103.46l-.35-.13c.86-2.23,1.72-4.47,2.58-6.72l.04-.11h.11c1.95-.22,3.96-.47,5.96-.75,.08-.01,.17-.02,.25-.04l.22-.03,.05,.37-.22,.03c-.09,.01-.17,.03-.26,.04-1.97,.28-3.94,.52-5.86,.73-.85,2.21-1.7,4.42-2.54,6.61Z"/><polygon class="cls-1" points="48.43 152.74 39.05 147.54 39.23 147.21 48.43 152.22 48.49 123.06 48.86 123.06 48.43 152.74"/><path class="cls-1" d="M30.65,103.27l-.35-.14c1.69-4.35,3.43-8.86,5.17-13.4l.04-.11h.11c1.95-.22,3.96-.47,5.96-.75,2.8-.39,5.72-.87,8.68-1.42h.07s.06,.02,.06,.02l4.16,2.26v-3.12s.16-.03,.16-.03c4.47-.91,9.09-1.98,14.13-3.26l.07-.02,9.99,5.43v-8.11s.15-.04,.15-.04c4.89-1.36,9.69-2.76,14.14-4.07l.07-.02,6.64,3.61,3.42-6.59,.08-.02c7.84-2.31,16.26-4.73,24.66-6.84l.07-.02,.06,.03,12.64,6.87-.18,.33-12.57-6.84c-8.34,2.09-16.7,4.5-24.5,6.79l-3.53,6.78-6.84-3.72c-4.39,1.29-9.11,2.67-13.93,4.01l-.02,8.45-10.41-5.66c-4.96,1.26-9.52,2.32-13.92,3.22v3.44s-4.66-2.53-4.66-2.53c-2.94,.54-5.84,1.02-8.63,1.41-1.97,.28-3.94,.52-5.86,.73-1.73,4.51-3.45,8.98-5.13,13.29Z"/><path class="cls-1" d="M82.58,135.25l-.09-.36c2.35-.6,4.87-1.28,7.92-2.12,.28-.51,.55-1.02,.82-1.53l.23-.43,.08-43.31,.14-.04c1.88-.52,3.73-1.05,5.93-1.68l.1,.36c-2.15,.62-3.96,1.13-5.79,1.64l-.08,43.12-.27,.51c-.29,.53-.57,1.06-.86,1.6l-.04,.07-.08,.02c-3.09,.85-5.63,1.53-8,2.14Z"/><rect class="cls-1" x="28.75" y="143.59" width=".37" height="13.29" transform="translate(-116.87 103.87) rotate(-61.45)"/><path class="cls-1" d="M12.87,151.99L.14,145.06v-.11s.1-56.14,.1-56.14l.22,.04c1.22,.21,2.45,.4,3.67,.56,.61,.08,1.22,.16,1.84,.23,1.21,.14,2.44,.27,3.67,.37,1.48,.13,3.08,.19,4.63,.25l1.08,.04-.02,.37-1.08-.04c-1.55-.06-3.16-.12-4.65-.25-1.23-.11-2.47-.23-3.69-.38-.61-.07-1.23-.15-1.84-.23-1.15-.16-2.32-.33-3.47-.52l-.1,55.58,12.54,6.82-.18,.33Z"/><rect class="cls-1" x="1.95" y="106.81" width="22.18" height=".37" transform="translate(-93.98 119.83) rotate(-89.89)"/><path class="cls-1" d="M180.03,67.16c9.3-.55,18.6-.21,27.89,1.37,0,3.65-.01,7.3-.02,10.95-6.14-1.04-12.28-1.54-18.42-1.6-.37,.58-.74,1.16-1.11,1.75-.02,10.17-.04,20.34-.06,30.51,.37,.59,.74,1.18,1.11,1.77,6.14,.06,12.28,.56,18.42,1.6,0,3.65-.01,7.3-.02,10.95-9.29-1.58-18.59-1.92-27.89-1.37-1.92-3.03-3.83-6.02-5.75-8.98,.02-12.35,.05-24.71,.07-37.06,1.93-3.32,3.86-6.62,5.79-9.87Z"/><path class="cls-1" d="M208,124.66l-.22-.04c-8.84-1.5-17.95-1.95-27.85-1.36h-.11s-.06-.09-.06-.09c-1.85-2.93-3.79-5.95-5.75-8.98l-.03-.05v-.06l.07-37.11,.03-.04c2.13-3.66,4.02-6.89,5.79-9.88l.05-.09h.1c9.92-.59,19.06-.14,27.93,1.36l.16,.03-.02,11.33-.22-.04c-5.87-.99-12.02-1.53-18.29-1.6-.26,.4-.52,.81-.77,1.22l-.25,.4-.06,30.4c.34,.54,.68,1.09,1.02,1.63,6.31,.07,12.48,.61,18.35,1.6l.16,.03-.02,11.33Zm-19.85-2.02c6.75,0,13.18,.52,19.47,1.58l.02-10.57c-5.83-.98-11.97-1.51-18.23-1.57h-.1s-.05-.09-.05-.09c-.37-.59-.73-1.18-1.11-1.76l-.03-.05v-.05l.06-30.56,.31-.49c.28-.44,.55-.87,.83-1.31l.06-.09h.1c6.24,.06,12.38,.59,18.23,1.57l.02-10.57c-8.76-1.47-17.79-1.91-27.59-1.34-1.74,2.95-3.61,6.14-5.71,9.74l-.07,36.96c1.94,2.98,3.84,5.96,5.67,8.84,2.77-.16,5.47-.24,8.13-.24Z"/><path class="cls-1" d="M166.85,68.49c.25-.04,.5-.07,.75-.1-.03,18.64-.07,37.28-.1,55.92-.3,.04-.61,.08-.91,.13-4.41,.62-8.81,1.4-13.22,2.31,.03-18.64,.07-37.28,.1-55.91,4.46-.92,8.93-1.71,13.39-2.33Z"/><path class="cls-1" d="M153.17,126.96l.1-56.29,.15-.03c4.61-.95,9.12-1.73,13.4-2.34l.96-.13-.1,56.3-.16,.02c-.3,.04-.61,.08-.91,.13-4.21,.59-8.65,1.37-13.21,2.3l-.23,.05Zm.48-55.99l-.1,55.53c4.49-.92,8.86-1.68,13.01-2.26,.25-.04,.5-.07,.75-.1l.1-55.54-.53,.07c-4.23,.59-8.67,1.37-13.23,2.3Z"/><path class="cls-1" d="M140.73,73.74c0,3.65-.01,7.29-.02,10.94-5.06,1.27-10.11,2.65-15.17,4.09-.37,.69-.74,1.38-1.11,2.08v5.35c.36,.51,.73,1.01,1.1,1.52,5.16-1.47,10.31-2.87,15.47-4.16,1.92,2.66,3.84,5.34,5.76,8.04-.01,5.73-.02,11.45-.03,17.17-1.93,3.59-3.86,7.19-5.79,10.82-9.97,2.49-19.94,5.42-29.91,8.37,0-3.65,.01-7.29,.02-10.94,6.81-2.01,13.62-4.02,20.43-5.89,.34-.68,.69-1.36,1.04-2.04,0-2.08,0-4.15,.01-6.23-.35-.52-.69-1.03-1.03-1.55-5.16,1.41-10.31,2.9-15.47,4.42-1.92-2.58-3.83-5.15-5.75-7.72,.01-5.43,.02-10.87,.03-16.3,1.93-3.71,3.86-7.42,5.79-11.13,8.22-2.42,16.43-4.77,24.65-6.83Z"/><path class="cls-1" d="M110.83,138.2l.02-11.33,.13-.04c6.26-1.85,13.35-3.94,20.36-5.86,.32-.64,.65-1.28,.98-1.93v-6.13c-.3-.46-.61-.93-.91-1.39-5.49,1.5-10.83,3.06-15.34,4.38l-.13,.04-.08-.1c-1.92-2.58-3.83-5.15-5.75-7.72l-.04-.05v-.06l.03-16.34,.02-.04c1.93-3.71,3.86-7.42,5.79-11.13l.04-.07,.08-.02c7.84-2.31,16.26-4.73,24.66-6.84l.23-.06-.02,11.33-.14,.04c-4.53,1.14-9.33,2.43-15.09,4.06-.35,.66-.7,1.31-1.05,1.97v5.24c.32,.46,.65,.91,.98,1.37,5.67-1.61,10.7-2.96,15.35-4.13l.12-.03,.07,.1c1.58,2.2,3.67,5.1,5.76,8.04l.03,.05v.06l-.03,17.22-.02,.04c-2.21,4.12-4.05,7.55-5.79,10.82l-.04,.07-.08,.02c-10.19,2.54-20.66,5.64-29.9,8.36l-.24,.07Zm.4-11.05l-.02,10.55c9.16-2.7,19.51-5.76,29.59-8.28,1.72-3.23,3.54-6.64,5.73-10.7l.03-17.07c-2.04-2.87-4.08-5.71-5.65-7.88-4.65,1.16-9.67,2.52-15.34,4.13l-.13,.04-.08-.11c-.37-.51-.74-1.01-1.11-1.52l-.04-.05v-5.46s.03-.04,.03-.04c.37-.69,.74-1.38,1.11-2.08l.04-.07,.08-.02c5.74-1.63,10.52-2.92,15.04-4.05l.02-10.56c-8.29,2.08-16.59,4.47-24.33,6.75-1.91,3.67-3.82,7.34-5.73,11.02l-.03,16.19c1.88,2.52,3.76,5.04,5.64,7.57,4.52-1.33,9.86-2.88,15.35-4.38l.13-.04,.07,.11c.34,.52,.69,1.03,1.03,1.55l.03,.05v6.33s-.03,.04-.03,.04c-.35,.68-.69,1.36-1.04,2.04l-.04,.07-.08,.02c-6.98,1.91-14.05,4-20.29,5.84Z"/><path class="cls-1" d="M105.86,83.59c-.03,15.47-.06,30.94-.09,46.41-1.93,3.73-3.86,7.47-5.79,11.19-8.98,2.6-17.96,5.09-26.94,7.13-1.92-2.73-3.84-5.48-5.76-8.26,.03-15.47,.06-30.94,.09-46.41,4.71-.96,9.42-2.07,14.14-3.27-.03,14.41-.05,28.81-.08,43.22,.37,.49,.74,.98,1.11,1.47,2.66-.69,5.33-1.41,7.99-2.14,.37-.69,.74-1.37,1.11-2.06,.03-14.41,.05-28.81,.08-43.22,4.71-1.31,9.43-2.68,14.14-4.07Z"/><path class="cls-1" d="M72.96,148.52l-.07-.1c-2.32-3.3-4.09-5.84-5.76-8.26l-.03-.05v-.06l.09-46.56,.15-.03c4.46-.91,9.08-1.98,14.13-3.26l.23-.06-.08,43.39c.33,.44,.66,.88,.99,1.32,2.31-.6,4.8-1.26,7.79-2.09,.35-.65,.7-1.3,1.05-1.95l.08-43.31,.14-.04c4.94-1.37,9.92-2.83,14.14-4.07l.24-.07-.09,46.7-1.23,2.38c-1.53,2.95-3.05,5.9-4.58,8.85l-.04,.07-.08,.02c-7.94,2.3-17.36,4.95-26.95,7.13l-.12,.03Zm-5.49-8.52c1.64,2.37,3.38,4.88,5.65,8.1,9.51-2.16,18.84-4.79,26.73-7.07,1.52-2.92,3.03-5.85,4.54-8.78l1.19-2.3,.09-46.11c-4.13,1.21-8.96,2.62-13.76,3.96l-.08,43.12-.02,.04c-.37,.69-.74,1.37-1.11,2.06l-.04,.07-.08,.02c-3.09,.85-5.63,1.53-8,2.14l-.12,.03-.07-.1c-.37-.49-.73-.98-1.11-1.47l-.04-.05v-.06l.08-42.97c-4.91,1.24-9.41,2.29-13.76,3.18l-.09,46.2Z"/><path class="cls-1" d="M13.06,95.91c4.9,.83,9.81,1.32,14.72,1.52,3.39,8.76,6.78,17.38,10.16,25.87,3.44-8.75,6.89-17.64,10.34-26.63,1.99-.21,3.98-.46,5.97-.74,2.9-.41,5.79-.88,8.69-1.42-.03,18.63-.07,37.27-.1,55.91-2.91,.53-5.81,1.01-8.71,1.42-1.83,.26-3.66,.49-5.5,.69,.02-9.83,.04-19.65,.05-29.48-3.89,10.24-7.78,20.36-11.67,30.3-.74,.02-1.48,.04-2.22,.05-3.88-9.76-7.75-19.7-11.63-29.82-.02,9.83-.04,19.65-.05,29.47-3.38-.26-6.76-.67-10.13-1.24,.03-18.64,.07-37.28,.1-55.92Z"/><path class="cls-1" d="M34.65,153.61l-.05-.12c-3.84-9.67-7.63-19.38-11.27-28.88l-.05,28.67-.2-.02c-3.39-.26-6.8-.68-10.15-1.24l-.16-.03v-.16s.1-56.14,.1-56.14l.22,.04c4.71,.8,9.65,1.31,14.69,1.51h.12s.04,.12,.04,.12c3.25,8.39,6.6,16.94,9.99,25.43,3.37-8.56,6.78-17.37,10.16-26.19l.04-.11h.11c1.96-.22,3.96-.47,5.96-.75,2.8-.39,5.72-.87,8.68-1.42l.22-.04-.1,56.29-.15,.03c-2.98,.55-5.91,1.03-8.72,1.42-1.85,.26-3.7,.49-5.5,.69l-.21,.02,.05-28.66c-3.96,10.43-7.67,20.04-11.31,29.35l-.05,.12h-.12c-.74,.03-1.48,.04-2.22,.06h-.13Zm-11.69-31.02l.36,.94c3.74,9.76,7.64,19.75,11.58,29.7,.66-.01,1.31-.03,1.96-.05,3.74-9.55,7.54-19.43,11.63-30.19l.36-.96-.06,30.29c1.73-.19,3.5-.41,5.28-.66,2.76-.39,5.63-.85,8.55-1.39l.1-55.53c-2.89,.53-5.74,.99-8.47,1.38-1.97,.28-3.94,.52-5.86,.73-3.42,8.93-6.89,17.85-10.3,26.52l-.17,.44-.18-.44c-3.43-8.6-6.83-17.27-10.12-25.76-4.94-.2-9.78-.7-14.4-1.48l-.1,55.54c3.22,.54,6.5,.94,9.76,1.2l.06-30.28Z"/><rect class="cls-1" x="146.89" y="60.17" width=".37" height="14.39" transform="translate(17.25 163.87) rotate(-61.23)"/><rect class="cls-1" x="173.43" y="56.71" width=".37" height="14.39" transform="translate(34.06 185.34) rotate(-61.23)"/><polygon class="cls-1" points="153.17 126.96 144.32 123.25 144.47 122.9 153.26 126.63 153.17 126.96"/><rect class="cls-1" x="109.59" y="70.03" width=".37" height="14.39" transform="translate(-10.74 136.29) rotate(-61.24)"/><rect class="cls-1" x="85.42" y="76.95" width=".37" height="14.39" transform="translate(-29.35 118.69) rotate(-61.23)"/><rect class="cls-1" x="60.84" y="83" width=".37" height="14.39" transform="translate(-47.4 100.28) rotate(-61.23)"/><path class="cls-1" d="M81.62,90.46c-.76-.29-1.52-.62-2.25-.99-.7-.35-1.4-.73-2.06-1.14l.2-.32c.66,.4,1.34,.78,2.03,1.13,.72,.36,1.47,.69,2.21,.97l-.13,.35Z"/><rect class="cls-1" x="41.89" y="86.12" width=".37" height="14.39" transform="translate(-59.97 85.29) rotate(-61.23)"/><rect class="cls-1" x="21.34" y="86.73" width=".37" height="14.39" transform="translate(-71.16 67.6) rotate(-61.23)"/><rect class="cls-1" x="6.53" y="85.3" width=".37" height="14.39" transform="translate(-77.6 53.88) rotate(-61.24)"/><path class="cls-1" d="M167.65,68.47c-.68-.31-1.37-.63-2.03-.97-.65-.33-1.31-.68-1.95-1.04l.18-.33c.63,.36,1.29,.7,1.94,1.03,.66,.33,1.34,.66,2.02,.96l-.15,.34Z"/><rect class="cls-1" x="64.83" y="136.4" width=".37" height="5.19" transform="translate(-88.37 134.71) rotate(-63.33)"/><polygon class="cls-1" points="72.96 148.52 62.76 143.75 62.92 143.41 73.12 148.21 72.96 148.52"/><rect class="cls-1" x="108.19" y="122.69" width=".37" height="6.03" transform="translate(-51.94 168.67) rotate(-64.24)"/><rect class="cls-1" x="106.98" y="132.14" width=".37" height="8.21" transform="translate(-62.27 172.82) rotate(-63.99)"/><rect class="cls-1" x="107.89" y="88.17" width=".37" height="4.92" transform="translate(-20.52 148.57) rotate(-64.23)"/><rect class="cls-1" x="107.77" y="104.64" width=".37" height="5.01" transform="translate(-30.9 169.21) rotate(-68.87)"/><rect class="cls-1" x="110.64" y="108.1" width=".37" height="11.19" transform="translate(-36.54 172.78) rotate(-67.58)"/><rect class="cls-1" x="105.42" y="116.73" width="9.87" height=".37" transform="translate(-28.44 35.78) rotate(-16.35)"/><rect class="cls-1" x="125.29" y="111.02" width=".37" height="13.37" transform="translate(-37.14 173.86) rotate(-62.22)"/><rect class="cls-1" x="58.63" y="87.39" width=".37" height="9.64" transform="translate(-50.17 101.27) rotate(-62.22)"/><rect class="cls-1" x="102.74" y="78.44" width=".37" height="6.9" transform="translate(-16.78 136.39) rotate(-62.99)"/><rect class="cls-1" x="170.69" y="71.64" width=".37" height="7.35" transform="translate(27.42 194.86) rotate(-63.59)"/><rect class="cls-1" x="170.62" y="108.64" width=".37" height="7.58" transform="translate(-7.23 213.01) rotate(-62.82)"/><path class="cls-1" d="M180.82,6.77c7.93-.53,15.86-.53,23.79,.2,0,3.07-.01,6.14-.02,9.21-5.27-.48-10.54-.64-15.81-.54-.31,.5-.63,1-.94,1.5-.02,8.56-.03,17.12-.05,25.68,.31,.48,.62,.97,.93,1.46,2.11-.04,4.23-.04,6.35,.01,.31-.49,.62-.97,.94-1.45,0-2.76,.01-5.51,.02-8.27-1.45-.05-2.91-.06-4.36-.06,0-3.05,.01-6.09,.02-9.14,5.44,0,10.87,.29,16.31,.93-.01,6.72-.02,13.44-.04,20.16-1.63,2.45-3.25,4.94-4.87,7.45-7.45-.6-14.9-.58-22.36-.08-1.61-2.54-3.23-5.05-4.84-7.54,.02-10.4,.04-20.79,.06-31.19,1.62-2.8,3.25-5.57,4.87-8.32Z"/><path class="cls-1" d="M203.18,54.09h-.11c-7.18-.59-14.49-.61-22.33-.08h-.11s-.06-.09-.06-.09c-1.66-2.61-3.29-5.15-4.84-7.54l-.03-.05v-.06l.06-31.24,.03-.04c1.59-2.73,3.22-5.53,4.87-8.32l.05-.09h.1c8.39-.57,16.18-.51,23.82,.19l.17,.02-.02,9.58-.2-.02c-5.04-.46-10.32-.64-15.69-.55-.29,.46-.57,.91-.85,1.37l-.05,25.57,.85,1.32c2.01-.04,4.08-.04,6.15,.01,.28-.44,.57-.88,.85-1.32v-8.03c-1.26-.04-2.63-.06-4.16-.06h-.19s.02-9.51,.02-9.51h.24c5.59,0,11.06,.31,16.28,.93l.17,.02-.04,20.39-.03,.05c-1.55,2.35-3.15,4.78-4.87,7.45l-.06,.09Zm-11.53-.84c3.85,0,7.61,.15,11.34,.44,1.69-2.62,3.25-5.01,4.78-7.32l.04-19.94c-5.11-.6-10.47-.9-15.94-.91l-.02,8.77c1.53,0,2.89,.02,4.18,.06h.18s-.02,8.51-.02,8.51l-.03,.05c-.31,.48-.63,.97-.94,1.45l-.06,.09h-.11c-2.13-.05-4.27-.06-6.34-.01h-.1s-1.02-1.59-1.02-1.59v-.05l.05-25.73,.03-.05c.31-.5,.62-1,.94-1.5l.05-.09h.1c5.35-.1,10.61,.07,15.63,.52l.02-8.83c-7.53-.68-15.21-.74-23.49-.19-1.62,2.74-3.23,5.5-4.79,8.19l-.06,31.08c1.52,2.35,3.12,4.84,4.75,7.4,3.71-.25,7.3-.37,10.82-.37Z"/><path class="cls-1" d="M166.48,8.27c1.92-.27,3.83-.51,5.75-.73-.03,15.69-.06,31.37-.09,47.05-1.91,.22-3.83,.46-5.75,.73-.91,.13-1.81,.26-2.72,.4,0-3.47,.01-6.95,.02-10.42-5.22-5.34-10.44-10.5-15.66-15.54-.02,9.61-.04,19.22-.05,28.84-2.84,.6-5.69,1.23-8.53,1.9,.03-15.68,.06-31.37,.09-47.05,3.4-.8,6.81-1.55,10.21-2.25,4.66,4.53,9.32,9.17,13.98,13.95,.01-5.49,.02-10.98,.03-16.47,.91-.14,1.81-.27,2.72-.4Z"/><path class="cls-1" d="M139.25,60.73l.09-47.44,.14-.03c3.49-.82,6.92-1.57,10.22-2.25l.1-.02,.07,.07c4.84,4.7,9.31,9.16,13.67,13.62l.03-16.17,.16-.02c.91-.14,1.82-.27,2.72-.4h0c1.91-.27,3.85-.51,5.75-.73l.21-.02-.09,47.43-.17,.02c-1.91,.22-3.84,.46-5.74,.73-.91,.13-1.81,.26-2.72,.4l-.22,.03,.02-10.56c-4.9-5.01-9.91-9.98-15.29-15.18l-.05,28.55-.15,.03c-2.63,.55-5.42,1.17-8.53,1.9l-.23,.05Zm.46-47.14l-.09,46.67c2.96-.69,5.63-1.28,8.16-1.81l.05-29.13,.32,.31c5.52,5.33,10.65,10.41,15.67,15.54l.05,.05v.08l-.02,10.2c.84-.13,1.67-.25,2.51-.37,1.85-.26,3.73-.5,5.59-.71l.09-46.67c-1.83,.21-3.7,.45-5.53,.7h0c-.85,.12-1.71,.25-2.56,.38l-.03,16.77-.32-.33c-4.43-4.55-8.98-9.08-13.91-13.87-3.22,.66-6.57,1.4-9.97,2.2Z"/><path class="cls-1" d="M133.92,14.79c-.03,15.68-.06,31.37-.09,47.05-3.97,.98-7.93,2-11.9,3.04,.03-15.69,.06-31.37,.09-47.06,3.97-1.04,7.94-2.07,11.9-3.04Z"/><path class="cls-1" d="M121.75,65.13l.09-47.44,.14-.04c3.28-.86,7.59-1.98,11.9-3.04l.23-.06-.09,47.44-.14,.04c-3.59,.88-7.48,1.88-11.9,3.04l-.24,.06Zm.46-47.16l-.09,46.67c4.26-1.12,8.04-2.09,11.53-2.95l.09-46.67c-4.17,1.03-8.33,2.11-11.53,2.95Z"/><path class="cls-1" d="M107.33,52.74c3,4.54,6,9.08,9,13.63-4.5,1.21-9.01,2.43-13.52,3.63-3.11-4.52-6.21-9.05-9.31-13.59-.19,.05-.37,.1-.56,.14,0,5.36-.02,10.71-.03,16.06-3.97,1.03-7.93,2.02-11.9,2.96,.03-15.68,.06-31.37,.09-47.05,9.07-2.15,18.15-4.58,27.22-7.03,1.61,2.2,3.23,4.41,4.84,6.62-.03,5.02-.06,10.05-.09,15.07-1.6,3.1-3.21,6.2-4.81,9.29-.06,.02-.24,.06-.42,.11-.2,.05-.42,.11-.51,.14Zm-6.15-9.1l.02-8.73c-.92-.71-1.29-1-2.21-1.7-2,.53-4.01,1.06-6.01,1.57l-.02,12.57c2.43-.63,4.86-1.27,7.29-1.92,.31-.6,.62-1.2,.94-1.79"/><path class="cls-1" d="M80.82,75.82l.09-47.44,.14-.03c9.44-2.24,19.3-4.89,27.22-7.03l.12-.03,.08,.1c1.49,2.03,2.98,4.07,4.47,6.11l.41,.56-.09,15.18-.02,.04c-1.6,3.1-3.21,6.2-4.81,9.29l-.04,.07-.76,.21,2.77,4.19c2.03,3.07,4.06,6.15,6.09,9.23l.14,.22-.25,.07c-2.23,.6-4.45,1.2-6.68,1.8-2.28,.61-4.56,1.23-6.84,1.84l-.13,.03-.07-.11c-3.29-4.79-6.31-9.2-9.24-13.49l-.29,.07-.03,16.06-.14,.04c-4.31,1.12-8.21,2.08-11.9,2.96l-.23,.05Zm.46-47.14l-.09,46.67c3.58-.85,7.36-1.79,11.52-2.87l.03-16.07,.83-.21,.07,.11c2.93,4.29,5.95,8.7,9.24,13.48,2.24-.6,4.47-1.2,6.71-1.8,2.14-.58,4.29-1.15,6.43-1.73-1.98-3.01-3.96-6.01-5.95-9.01l-3.05-4.62,1.1-.3c1.58-3.06,3.17-6.12,4.75-9.18l.09-14.97-.34-.46c-1.46-2-2.93-4.01-4.39-6.01-7.86,2.12-17.61,4.74-26.96,6.96Zm11.48,18.92l.02-12.96,.14-.04c2-.52,4.01-1.04,6.01-1.57l.09-.02,2.35,1.82-.02,8.87-.02,.04c-.23,.43-.46,.87-.68,1.3l-.29,.56-.08,.02c-2.62,.7-5,1.32-7.29,1.92l-.23,.06Zm.4-12.67l-.02,12.18c2.19-.57,4.48-1.17,6.97-1.83l.22-.42c.22-.42,.44-.84,.66-1.26l.02-8.6-2.06-1.59c-1.93,.51-3.86,1.02-5.78,1.51Z"/><path class="cls-1" d="M72.56,30.46c1.59,2.3,3.19,4.59,4.78,6.87,0,5.02-.02,10.04-.03,15.06-1.62,3.03-3.25,6.06-4.87,9.08-4.98,1.07-9.96,2.03-14.95,2.83l-.03,16.06c-1.57,.25-3.15,.49-4.72,.71-2.39,.34-4.78,.63-7.18,.89,.03-15.68,.06-31.37,.09-47.05,2.39-.25,4.78-.55,7.17-.89,6.58-.92,13.16-2.14,19.74-3.56Zm-7.14,21.68c0-3.18,.01-6.36,.02-9.54-.31-.44-.62-.87-.93-1.3-2.32,.44-4.65,.85-6.97,1.22,0,4.19-.02,8.38-.02,12.57,2.32-.38,4.65-.78,6.97-1.22,.31-.58,.63-1.15,.94-1.72"/><path class="cls-1" d="M45.38,82.17l.09-47.43,.17-.02c2.34-.25,4.75-.55,7.16-.89,6.17-.87,12.63-2.03,19.72-3.55l.12-.03,.07,.1c1.59,2.3,3.19,4.59,4.78,6.87l.03,.05-.03,15.16-.02,.04c-1.62,3.04-3.25,6.06-4.87,9.08l-.04,.08-.08,.02c-5.25,1.13-10.1,2.04-14.8,2.81l-.03,16.06-.16,.03c-1.59,.26-3.18,.5-4.73,.71-2.43,.34-4.85,.64-7.18,.89l-.21,.02Zm.46-47.09l-.09,46.68c2.26-.24,4.61-.53,6.96-.86,1.49-.21,3.02-.44,4.56-.69l.03-16.06,.16-.03c4.72-.76,9.58-1.68,14.85-2.81,1.61-2.98,3.21-5.96,4.81-8.96l.03-14.95c-1.56-2.23-3.12-4.47-4.68-6.72-7.06,1.51-13.48,2.67-19.63,3.53-2.36,.33-4.72,.62-7.01,.87Zm11.48,20.23l.02-12.95,.16-.03c2.31-.37,4.65-.78,6.97-1.22l.12-.02,.07,.1c.31,.44,.62,.87,.93,1.31l.03,.05-.02,9.65-.02,.04c-.31,.58-.62,1.15-.94,1.73l-.04,.08-.09,.02c-2.32,.44-4.67,.85-6.98,1.22l-.22,.04Zm.4-12.63l-.02,12.19c2.21-.36,4.45-.75,6.66-1.17,.29-.54,.58-1.07,.87-1.6l.02-9.44c-.27-.39-.55-.77-.83-1.16-2.23,.42-4.48,.82-6.7,1.18Z"/><path class="cls-1" d="M16.08,35.46c6.91,.56,13.82,.58,20.73,.18,0,3.07-.01,6.14-.02,9.21-4.26,.24-8.51,.33-12.77,.23-.31,.48-.63,.97-.94,1.45v4.5c.3,.53,.61,1.05,.92,1.57,4.34,.1,8.67,.01,13.01-.25,1.62,2.55,3.23,5.07,4.84,7.58,0,4.82-.02,9.63-.03,14.45-1.62,2.78-3.25,5.54-4.87,8.29-8.38,.49-16.77,.38-25.15-.57,0-3.07,.01-6.14,.02-9.21,5.73,.64,11.46,.9,17.18,.84,.29-.5,.58-.99,.87-1.49,0-1.75,0-3.5,0-5.24-.29-.51-.58-1.02-.87-1.54-4.34,.05-8.67-.09-13.01-.44-1.62-2.77-3.23-5.57-4.84-8.41,0-4.57,.02-9.14,.03-13.71,1.62-2.45,3.24-4.94,4.87-7.45Z"/><path class="cls-1" d="M27.4,83.15c-5.36,0-10.51-.28-15.6-.86l-.17-.02,.02-9.58,.21,.02c5.48,.62,11.22,.9,17.06,.84,.27-.45,.53-.9,.79-1.35v-5.14c-.24-.44-.49-.89-.74-1.33l-.04-.07c-4.41,.04-8.75-.11-12.92-.44h-.1s-.05-.09-.05-.09c-1.62-2.77-3.25-5.6-4.84-8.41l-.02-.04v-.05l.03-13.77,.03-.05c1.52-2.3,3.12-4.74,4.87-7.45l.06-.09h.11c6.59,.54,13.56,.6,20.71,.19h.2s-.02,9.57-.02,9.57h-.18c-4.35,.26-8.62,.34-12.68,.25l-.85,1.32v4.4c.22,.38,.44,.76,.67,1.14l.18,.3c4.16,.1,8.49,.01,12.89-.25h.11s.06,.09,.06,.09c1.55,2.44,3.13,4.92,4.84,7.58l.03,.05-.03,14.56-.03,.04c-1.63,2.8-3.27,5.58-4.87,8.29l-.05,.09h-.1c-3.28,.2-6.46,.3-9.58,.3Zm-15.39-1.21c7.94,.88,16.08,1.06,24.85,.55,1.58-2.66,3.19-5.4,4.79-8.15l.03-14.35c-1.68-2.61-3.23-5.04-4.75-7.44-4.41,.26-8.76,.34-12.92,.24h-.1s-.28-.48-.28-.48c-.23-.39-.47-.79-.7-1.19l-.03-.04v-4.61s1.03-1.59,1.03-1.59h.1c4.03,.1,8.26,.02,12.57-.22l.02-8.83c-7.06,.4-13.94,.34-20.45-.18-1.72,2.66-3.28,5.05-4.78,7.31l-.03,13.61c1.57,2.77,3.18,5.55,4.77,8.28,4.16,.33,8.5,.48,12.9,.43h.11s.15,.26,.15,.26c.26,.46,.52,.91,.78,1.37l.02,.04v5.34s-.03,.04-.03,.04c-.29,.5-.58,.99-.87,1.49l-.05,.09h-.11c-5.81,.06-11.53-.22-17-.82l-.02,8.83Z"/><path class="cls-1" d="M208.02,26.43l-10.94-6.16c-2.64-.31-6.33-.54-9.25-.7l.02-.37c2.94,.16,6.66,.39,9.31,.71l.07,.02,10.97,6.17-.18,.33Z"/><path class="cls-1" d="M153.05,14.25h-.37c0-2.75,.01-4.31,.02-5.88,0-1.57,.01-3.13,.02-5.88v-.16s.16-.02,.16-.02c.91-.14,1.82-.27,2.72-.4,1.92-.27,3.85-.52,5.75-.73h.06s6.06,3.29,6.06,3.29c.78-1.33,1.56-2.65,2.34-3.97l.05-.09h.1c8.39-.57,16.18-.51,23.82,.19l.07,.02,10.96,6.15-.18,.33-10.93-6.13c-7.58-.69-15.3-.76-23.62-.2-.79,1.34-1.58,2.69-2.38,4.05l-.09,.16-6.27-3.41c-1.87,.21-3.79,.46-5.68,.72-.85,.12-1.71,.25-2.56,.38,0,2.65,0,4.18-.01,5.72,0,1.57-.01,3.13-.02,5.88Z"/><polygon class="cls-1" points="121.75 65.13 111.12 58.87 111.31 58.54 122.03 64.86 121.75 65.13"/><path class="cls-1" d="M129.01,11.9l-5.81-3.13c-4.29,1.04-8.57,2.15-11.82,2.99l-.09-.36c3.27-.85,7.58-1.96,11.9-3.01l.07-.02,5.38,2.9V7.09s.15-.03,.15-.03c3.47-.81,6.91-1.56,10.21-2.23h.07s.06,.02,.06,.02l10.71,6.12-.19,.32-10.65-6.09c-3.23,.66-6.59,1.39-9.99,2.18v4.51Z"/><rect class="cls-1" x="157.95" y="46.57" width=".37" height="12.41" transform="translate(35.17 165.35) rotate(-60.93)"/><polygon class="cls-1" points="139.25 60.73 133.68 57.48 133.86 57.16 139.53 60.45 139.25 60.73"/><polygon class="cls-1" points="102.73 70.23 92.83 64.54 93.01 64.21 102.9 69.85 102.73 70.23"/><rect class="cls-1" x="30.34" y="41.26" width=".37" height="14.88" transform="translate(-26.87 51.7) rotate(-60.91)"/><path class="cls-1" d="M15.93,65.2l-10.9-6.21-.03-.04c-1.63-2.79-3.26-5.62-4.84-8.41l-.02-.04v-.05l.03-13.71h.37s-.03,13.66-.03,13.66c1.57,2.76,3.18,5.56,4.79,8.32l10.82,6.16-.19,.33Z"/><path class="cls-1" d="M34.97,34.57l-9.11-4.95,.18-.33,8.55,4.65v-5.39s.18-.02,.18-.02c1.17-.12,2.38-.26,3.58-.41,1.19-.15,2.39-.31,3.58-.47,6.17-.87,12.63-2.03,19.72-3.55l.08,.37c-7.11,1.53-13.57,2.69-19.75,3.56-1.19,.17-2.4,.33-3.59,.47-1.15,.14-2.3,.27-3.42,.39v5.68Z"/><path class="cls-1" d="M70.28,22.53l-.09-.36c9.44-2.24,19.3-4.89,27.22-7.03l.07-.02,10.93,6.22-.19,.33-10.79-6.14c-7.91,2.13-17.74,4.78-27.15,7.01Z"/><path class="cls-1" d="M11.62,82.28L.77,76.04l.02-9.53,.21,.02c.71,.08,1.43,.15,2.14,.22,4.81,.46,9.83,.67,14.91,.62,.14-.23,.34-.57,.55-.92,.3-.49,.61-1.01,.77-1.28l.32,.19c-.16,.27-.47,.79-.77,1.29-.24,.4-.47,.78-.6,1l-.05,.09h-.11c-5.14,.05-10.2-.16-15.06-.62-.65-.06-1.3-.13-1.94-.2l-.02,8.89,10.66,6.13-.19,.32Z"/><rect class="cls-1" x="158.12" y="-.71" width=".37" height="12.54" transform="translate(74.96 140.27) rotate(-60.27)"/><rect class="cls-1" x="166.64" y="-1.9" width=".37" height="12.6" transform="translate(81.55 147.85) rotate(-60.78)"/><rect class="cls-1" x="175.35" y="-2.5" width=".37" height="12.6" transform="translate(86.53 155.15) rotate(-60.78)"/><rect class="cls-1" x="116.66" y="8.67" width=".37" height="12.18" transform="translate(45.64 108.57) rotate(-60)"/><rect class="cls-1" x="130.59" y="9.07" width=".37" height="7.52" transform="translate(54.66 119.94) rotate(-60.2)"/><rect class="cls-1" x="134.18" y="4.28" width=".37" height="12.3" transform="translate(58.16 121.59) rotate(-60)"/><rect class="cls-1" x="75.48" y="19.23" width=".37" height="12.48" transform="translate(16.31 78.86) rotate(-60.58)"/><rect class="cls-1" x="173.87" y="12.02" width=".37" height="4.21" transform="translate(76.76 159.14) rotate(-60.78)"/><rect class="cls-1" x="173.88" y="43.17" width=".37" height="4.21" transform="translate(49.58 175.09) rotate(-60.78)"/><rect class="cls-1" x="176.22" y="46.4" width=".37" height="10.08" transform="translate(45.4 180.28) rotate(-60.78)"/><rect class="cls-1" x="66.85" y="21.02" width=".37" height="12.62" transform="translate(10.49 72.55) rotate(-60.83)"/><path class="cls-1" d="M16.74,29.94c-3.96,0-7.83-.16-11.59-.47l.03-.37c6.64,.56,13.67,.62,20.89,.19l.02,.37c-3.16,.19-6.28,.29-9.35,.29Z"/><path class="cls-1" d="M.32,36.84c1.67-2.5,3.34-5.03,5.02-7.59"/><path class="cls-1" d="M.48,36.95l-.31-.21c1.57-2.35,3.22-4.83,5.02-7.59l.31,.2c-1.8,2.76-3.45,5.24-5.02,7.59Z"/><polygon class="cls-1" points="80.82 75.82 69.98 69.54 70.16 69.21 81.1 75.54 80.82 75.82"/><polygon class="cls-1" points="45.38 82.17 39.33 78.68 39.52 78.36 45.56 81.86 45.38 82.17"/><rect class="cls-1" x="104.2" y="18.43" width="14.52" height=".37" transform="translate(92.19 129.97) rotate(-89.66)"/><rect class="cls-1" x="105.09" y="52.45" width="12.67" height=".37" transform="translate(57.92 163.64) rotate(-89.55)"/><polygon class="cls-1" points="153.01 49.96 152.64 49.96 152.64 49.87 152.72 34.51 153.1 34.51 153.01 49.96"/><rect class="cls-1" x="66.37" y="65.53" width="7.72" height=".37" transform="translate(3.69 135.18) rotate(-89.33)"/><rect class="cls-1" x="66.75" y="25.42" width="6.96" height=".37" transform="translate(43.8 95.53) rotate(-89.33)"/><rect class="cls-1" x="33.47" y="29.97" width=".37" height="7.53" transform="translate(-12.28 46.41) rotate(-60.5)"/><path class="cls-1" d="M34.97,51.06h-.37c.01-1.16,0-2.17,0-3.14,0-.97-.02-1.97,0-3.13h.37c-.01,1.16,0,2.16,0,3.12,0,.97,.02,1.97,0,3.14Z"/><rect class="cls-1" x="6.41" y="63.69" width=".37" height="12.57" transform="translate(-57.53 41.21) rotate(-60.46)"/><rect class="cls-1" x="5.61" y="47.22" width=".37" height="12.57" transform="translate(-43.62 32.17) rotate(-60.46)"/><rect class="cls-1" x="5.61" y="33.48" width=".37" height="12.57" transform="translate(-31.66 25.2) rotate(-60.46)"/><rect class="cls-1" x="10.41" y="26.05" width=".37" height="12.74" transform="translate(-22.8 25.48) rotate(-60.16)"/><rect class="cls-1" x="40.05" y="25.54" width=".37" height="12.48" transform="translate(-7.21 51.21) rotate(-60.58)"/><rect class="cls-1" x="23.14" y="64.31" width=".37" height="12.57" transform="translate(-49.59 56.08) rotate(-60.46)"/><rect class="cls-1" x="189.7" y="21.69" width=".37" height="4.85" transform="translate(68.79 172.35) rotate(-57.99)"/><rect class="cls-1" x="189.43" y="31.25" width=".37" height="4.41" transform="translate(68.8 183.38) rotate(-61.14)"/><rect class="cls-1" x="191.29" y="37.67" width=".37" height="8.52" transform="translate(59.23 186.61) rotate(-59.92)"/></g></g></svg>